<svg width="36" height="36" viewBox="0 0 36 36" fill="none" xmlns="http://www.w3.org/2000/svg">
<rect width="36" height="36" rx="18" fill="#EE8208"/>
<path fill-rule="evenodd" clip-rule="evenodd" d="M14.325 21.0279C13.868 20.8129 13.551 20.3489 13.551 19.8109C13.551 19.0689 14.153 18.4669 14.894 18.4669C15.117 18.4669 15.327 18.5219 15.513 18.6179C16.264 18.9859 17.108 19.1919 18 19.1919C18.894 19.1919 19.739 18.9849 20.492 18.6159C20.676 18.5209 20.885 18.4669 21.106 18.4669C21.847 18.4669 22.449 19.0689 22.449 19.8109C22.449 20.3489 22.131 20.8149 21.673 21.0289C21.167 21.2779 20.631 21.4769 20.073 21.6189L21.908 23.6989C22.399 24.2549 22.346 25.1049 21.79 25.5959C21.234 26.0859 20.384 26.0329 19.893 25.4769L17.999 23.3309L16.105 25.4769C15.614 26.0329 14.764 26.0859 14.208 25.5959C13.652 25.1049 13.599 24.2549 14.09 23.6989L15.925 21.6189C15.367 21.4759 14.832 21.2769 14.325 21.0279ZM18 10.0679C20.27 10.0679 22.114 11.9119 22.114 14.1819C22.114 16.4519 20.27 18.2959 18 18.2959C15.73 18.2959 13.886 16.4519 13.886 14.1819C13.886 11.9119 15.73 10.0679 18 10.0679ZM18 12.5669C18.891 12.5669 19.615 13.2909 19.615 14.1819C19.615 15.0729 18.891 15.7969 18 15.7969C17.109 15.7969 16.385 15.0729 16.385 14.1819C16.385 13.2909 17.109 12.5669 18 12.5669Z" fill="white"/>
</svg>
