<svg width="36" height="36" viewBox="0 0 36 36" fill="none" xmlns="http://www.w3.org/2000/svg">
<rect width="36" height="36" rx="18" fill="#229ED9"/>
<path fill-rule="evenodd" clip-rule="evenodd" d="M12.991 18.0589C12.33 17.6889 11.569 17.2629 10.718 16.7859C10.075 16.4259 9.90103 15.6429 10.088 15.1759C10.276 14.7099 10.714 14.3529 11.26 14.2199C14.693 13.3879 20.967 11.8659 24.318 11.0539C24.776 10.9429 25.316 10.9949 25.652 11.2879C26.092 11.6719 26.008 12.2649 25.881 12.6649C24.95 15.5889 23.269 20.8729 22.315 23.8699C22.163 24.3469 21.783 24.7769 21.258 24.9409C20.468 25.1799 19.853 24.6879 19.533 24.2809C18.908 23.4849 18.331 22.7479 17.832 22.1079L14.715 24.4609C14.389 24.7069 13.952 24.7469 13.587 24.5649C13.221 24.3829 12.991 24.0099 12.991 23.6019V18.0589ZM16.253 19.6649C16.368 19.4149 16.535 19.1909 16.744 19.0099C17.593 18.2739 19.961 16.2189 21.514 14.8719C21.596 14.8009 21.611 14.6799 21.55 14.5899C21.488 14.5009 21.37 14.4719 21.274 14.5229C19.343 15.5559 16.29 17.1889 15.176 17.7859C14.912 17.9269 14.742 18.1959 14.728 18.4949C14.687 19.3389 14.602 21.1089 14.545 22.3049C14.539 22.4179 14.614 22.5179 14.724 22.5439C14.833 22.5709 14.945 22.5159 14.992 22.4139C15.408 21.5089 15.972 20.2789 16.253 19.6649Z" fill="white"/>
</svg>
