<svg width="36" height="36" viewBox="0 0 36 36" fill="none" xmlns="http://www.w3.org/2000/svg">
<rect width="36" height="36" rx="18" fill="#2787F5"/>
<g clip-path="url(#clip0_529_474)">
<path fill-rule="evenodd" clip-rule="evenodd" d="M18.3379 26H17.6717C14.0544 26 12.2464 26 11.1232 24.8768C10 23.7536 10 21.9456 10 18.3379V17.6621C10 14.0538 10 12.2464 11.1232 11.1232C12.2464 10 14.0544 10 17.6717 10H18.3379C21.9546 10 23.7728 10 24.8864 11.1232C26 12.2464 26 14.055 26 17.6621V18.3379V18.4289C26.0001 21.9761 26.0001 23.7631 24.8864 24.8768C23.7632 26 21.9546 26 18.3379 26ZM12.7031 14.874C12.7882 19.0334 14.9777 21.5364 18.5854 21.5364H18.7946V19.1569C20.1079 19.29 21.0884 20.2705 21.4884 21.5364H23.3822C22.8682 19.6427 21.5358 18.5956 20.7076 18.1956C21.5358 17.7009 22.7063 16.5015 22.9822 14.874H21.2599C20.8977 16.1969 19.8225 17.3963 18.7946 17.5102V14.874H17.043V19.4903C15.9774 19.226 14.5873 17.9294 14.5303 14.874H12.7031Z" fill="white"/>
</g>
<defs>
<clipPath id="clip0_529_474">
<rect width="16" height="16" fill="white" transform="translate(10 10)"/>
</clipPath>
</defs>
</svg>
