<svg width="577" height="327" viewBox="0 0 577 327" fill="none" xmlns="http://www.w3.org/2000/svg">
<g style="mix-blend-mode:multiply" opacity="0.8">
<path d="M-21.8416 141.021L-21.2066 141.361L-20.8282 140.656L-21.5697 140.354L-21.8416 141.021ZM-26.7989 138.305L-26.3844 137.716L-26.3916 137.711L-26.7989 138.305ZM-31.0896 134.478L-30.556 133.994L-30.5626 133.987L-31.0896 134.478ZM-35.8437 122.535L-36.5642 122.537L-36.5642 122.549L-36.5637 122.562L-35.8437 122.535ZM-34.978 116.59L-35.6523 116.336L-35.6593 116.354L-35.6653 116.373L-34.978 116.59ZM-32.1574 111.594L-32.7078 111.129L-32.7158 111.139L-32.7235 111.148L-32.1574 111.594ZM-27.9363 108.008L-27.2645 107.748L-27.572 106.955L-28.3037 107.389L-27.9363 108.008ZM-12.717 147.246L-13.3888 147.506L-13.1653 148.082L-12.5617 147.949L-12.717 147.246ZM-11.2558 146.924L-11.3698 146.213L-11.3906 146.216L-11.4111 146.221L-11.2558 146.924ZM2.02258 139.953L1.53333 139.424L1.52805 139.429L1.52288 139.434L2.02258 139.953ZM7.85635 131.718L7.20181 131.416L7.19703 131.427L7.19258 131.437L7.85635 131.718ZM10.01 121.858L9.28972 121.838L9.28953 121.846L9.28948 121.853L10.01 121.858ZM1.98254 101.791L1.46904 102.296L1.47445 102.302L1.98254 101.791ZM-6.80651 95.8022L-7.09736 96.4611L-7.08746 96.4653L-6.80651 95.8022ZM-17.3662 93.4262L-17.3373 92.7065L-17.3449 92.7062L-17.3662 93.4262ZM-38.1562 101.476L-38.6536 100.954L-38.663 100.964L-38.1562 101.476ZM-44.4619 110.382L-45.1167 110.081L-45.1212 110.091L-45.1254 110.101L-44.4619 110.382ZM-46.793 121.042L-47.5131 121.013L-47.5134 121.026L-46.793 121.042ZM-39.5492 141.29L-39.0049 140.819L-39.0089 140.814L-39.5492 141.29ZM-33.6285 146.804L-33.214 146.215L-33.2194 146.211L-33.6285 146.804ZM-26.7986 150.258L-27.0148 150.945L-26.4456 151.125L-26.1636 150.599L-26.7986 150.258ZM-18.9202 104.518L-18.9549 103.798L-19.9534 103.846L-19.592 104.778L-18.9202 104.518ZM-13.4304 104.831L-13.5526 105.541L-13.5451 105.542L-13.5375 105.544L-13.4304 104.831ZM-8.52502 106.469L-8.87799 107.097L-8.87433 107.099L-8.52502 106.469ZM-4.44004 109.767L-3.89107 109.3L-3.89773 109.293L-4.44004 109.767ZM-0.408987 120.159L-1.12959 120.163L-1.12936 120.174L-0.408987 120.159ZM-1.28557 125.134L-1.95384 124.864L-1.9625 124.885L-1.96976 124.907L-1.28557 125.134ZM-3.84634 129.54L-4.38883 129.066L-4.39365 129.072L-4.39835 129.077L-3.84634 129.54ZM-7.81422 133.15L-8.48601 133.41L-8.15236 134.27L-7.39856 133.739L-7.81422 133.15ZM-21.5697 140.354C-23.2575 139.666 -24.8622 138.787 -26.3845 137.716L-27.2134 138.894C-25.6039 140.026 -23.9038 140.958 -22.1134 141.688L-21.5697 140.354ZM-26.3916 137.711C-27.7773 136.761 -29.166 135.525 -30.5561 133.994L-31.6231 134.962C-30.1729 136.559 -28.7012 137.874 -27.2063 138.899L-26.3916 137.711ZM-30.5626 133.987C-31.8822 132.572 -32.9726 130.776 -33.8231 128.584L-35.1667 129.104C-34.2621 131.436 -33.0824 133.397 -31.6166 134.969L-30.5626 133.987ZM-33.8231 128.584C-34.6194 126.531 -35.0503 124.507 -35.1236 122.509L-36.5637 122.562C-36.484 124.733 -36.0157 126.915 -35.1667 129.104L-33.8231 128.584ZM-35.1232 122.534C-35.1288 120.489 -34.8496 118.582 -34.2906 116.806L-35.6653 116.373C-36.2723 118.302 -36.5702 120.358 -36.5642 122.537L-35.1232 122.534ZM-34.3036 116.844C-33.6486 115.104 -32.745 113.504 -31.5914 112.04L-32.7235 111.148C-33.9683 112.728 -34.9451 114.458 -35.6523 116.336L-34.3036 116.844ZM-31.607 112.059C-30.4307 110.668 -29.085 109.526 -27.5689 108.628L-28.3037 107.389C-29.9624 108.371 -31.4308 109.619 -32.7078 111.129L-31.607 112.059ZM-28.6081 108.269L-13.3888 147.506L-12.0452 146.986L-27.2645 107.748L-28.6081 108.269ZM-12.717 147.246C-12.5617 147.949 -12.5617 147.949 -12.5616 147.949C-12.5616 147.949 -12.5616 147.949 -12.5616 147.949C-12.5616 147.949 -12.5616 147.949 -12.5616 147.949C-12.5616 147.949 -12.5616 147.949 -12.5616 147.949C-12.5615 147.949 -12.5615 147.949 -12.5615 147.949C-12.5615 147.949 -12.5615 147.949 -12.5615 147.949C-12.5612 147.949 -12.5615 147.949 -12.5613 147.949C-12.5606 147.949 -12.5612 147.949 -12.5602 147.949C-12.5597 147.949 -12.5575 147.948 -12.5559 147.948C-12.5551 147.948 -12.5538 147.947 -12.5527 147.947C-12.5519 147.947 -12.5526 147.947 -12.5518 147.947C-12.5512 147.947 -12.5515 147.947 -12.5509 147.947C-12.5484 147.946 -12.5523 147.947 -12.5499 147.946C-12.5445 147.945 -12.5542 147.947 -12.5488 147.946C-12.5473 147.946 -12.5413 147.945 -12.5388 147.944C-12.5255 147.941 -12.4988 147.935 -12.4703 147.929C-12.4165 147.917 -12.4252 147.919 -12.3562 147.904C-12.3193 147.896 -12.3226 147.896 -12.282 147.887C-12.268 147.884 -12.2141 147.873 -12.1963 147.869C-12.1576 147.86 -12.0449 147.835 -11.9909 147.823C-11.9897 147.823 -11.9885 147.823 -11.9873 147.823C-11.9861 147.822 -11.9849 147.822 -11.9837 147.822C-11.9638 147.817 -11.9965 147.825 -11.9765 147.82C-11.9765 147.82 -11.9693 147.819 -11.9693 147.819C-11.9557 147.816 -11.9755 147.82 -11.962 147.817C-11.939 147.812 -11.9556 147.816 -11.9324 147.81C-11.8923 147.802 -11.9424 147.813 -11.902 147.804C-11.8913 147.801 -11.8974 147.803 -11.8866 147.8C-11.8853 147.8 -11.884 147.8 -11.8827 147.8C-11.8814 147.799 -11.8801 147.799 -11.8788 147.799C-11.8775 147.798 -11.8762 147.798 -11.8749 147.798C-11.8736 147.798 -11.8723 147.797 -11.871 147.797C-11.8561 147.794 -11.8226 147.786 -11.8068 147.783C-11.7984 147.781 -11.7823 147.777 -11.7736 147.776C-11.7722 147.775 -11.7708 147.775 -11.7694 147.775C-11.768 147.774 -11.7666 147.774 -11.7652 147.774C-11.7638 147.773 -11.7624 147.773 -11.761 147.773C-11.7596 147.772 -11.7582 147.772 -11.7568 147.772C-11.755 147.771 -11.7416 147.768 -11.7397 147.768C-11.7372 147.767 -11.6034 147.738 -11.597 147.737C-11.5287 147.722 -11.5907 147.735 -11.5214 147.72C-11.495 147.714 -11.5091 147.717 -11.4825 147.711C-11.4809 147.711 -11.4792 147.711 -11.4776 147.71C-11.476 147.71 -11.4743 147.71 -11.4727 147.709C-11.471 147.709 -11.4694 147.709 -11.4678 147.708C-11.4661 147.708 -11.4645 147.707 -11.4628 147.707C-11.4612 147.707 -11.4595 147.706 -11.4579 147.706C-11.4562 147.706 -11.4545 147.705 -11.4529 147.705C-11.4512 147.705 -11.4496 147.704 -11.4479 147.704C-11.4463 147.703 -11.4446 147.703 -11.4429 147.703C-11.3648 147.685 -11.1938 147.648 -11.1005 147.627L-11.4111 146.221C-11.5394 146.249 -11.6405 146.271 -11.7536 146.296C-11.7825 146.302 -11.7645 146.298 -11.7932 146.305C-11.8236 146.311 -11.8019 146.307 -11.8321 146.313C-11.855 146.318 -11.8283 146.312 -11.8512 146.317C-11.8636 146.32 -11.858 146.319 -11.8702 146.322C-11.8771 146.323 -11.8823 146.324 -11.8891 146.326C-11.8986 146.328 -11.8983 146.328 -11.9077 146.33C-11.9297 146.335 -12.0322 146.357 -12.0504 146.361C-12.1163 146.376 -12.0525 146.362 -12.1175 146.376C-12.143 146.382 -12.1571 146.385 -12.1817 146.39C-12.2183 146.398 -12.2073 146.396 -12.243 146.404C-12.2508 146.405 -12.2948 146.415 -12.3015 146.417C-12.3971 146.438 -12.4266 146.444 -12.507 146.462C-12.6038 146.483 -12.7451 146.514 -12.781 146.522C-12.8126 146.529 -12.8331 146.534 -12.8495 146.537C-12.8678 146.541 -12.8421 146.536 -12.8595 146.539C-12.8727 146.542 -12.8473 146.537 -12.8605 146.54C-12.8606 146.54 -12.8615 146.54 -12.8615 146.54C-12.8693 146.542 -12.8556 146.539 -12.8634 146.54C-12.8652 146.541 -12.865 146.541 -12.8666 146.541C-12.8677 146.541 -12.8669 146.541 -12.8679 146.541C-12.8681 146.541 -12.8682 146.541 -12.8683 146.541C-12.8684 146.541 -12.8685 146.541 -12.8685 146.541C-12.8691 146.542 -12.8686 146.541 -12.8691 146.542C-12.87 146.542 -12.8703 146.542 -12.8709 146.542C-12.871 146.542 -12.8711 146.542 -12.8712 146.542C-12.8726 146.542 -12.8701 146.542 -12.8715 146.542C-12.8717 146.542 -12.8718 146.542 -12.872 146.542C-12.8729 146.542 -12.8712 146.542 -12.8721 146.542C-12.8733 146.543 -12.8711 146.542 -12.8722 146.542C-12.8726 146.542 -12.872 146.542 -12.8723 146.542C-12.8723 146.542 -12.8723 146.542 -12.8723 146.542C-12.8723 146.542 -12.8723 146.542 -12.717 147.246ZM-11.1418 147.635C-9.99867 147.453 -8.5962 147.033 -6.94723 146.394L-7.46825 145.051C-9.07214 145.672 -10.3684 146.053 -11.3698 146.213L-11.1418 147.635ZM-6.94723 146.394C-3.26015 144.967 -0.099871 142.994 2.52229 140.472L1.52288 139.434C-0.949193 141.812 -3.94246 143.686 -7.46825 145.051L-6.94723 146.394ZM2.51184 140.482C5.15865 138.036 7.16413 135.207 8.52012 131.998L7.19258 131.437C5.9193 134.45 4.03561 137.112 1.53333 139.424L2.51184 140.482ZM8.51089 132.019C9.9681 128.855 10.7069 125.467 10.7305 121.863L9.28948 121.853C9.26713 125.26 8.57014 128.445 7.20181 131.416L8.51089 132.019ZM10.7303 121.877C10.8267 118.24 10.1544 114.576 8.72455 110.89L7.38097 111.41C8.74823 114.935 9.38066 118.41 9.28972 121.838L10.7303 121.877ZM8.72455 110.89C7.2909 107.194 5.21296 103.988 2.49063 101.281L1.47445 102.302C4.04869 104.862 6.01756 107.895 7.38097 111.41L8.72455 110.89ZM2.49601 101.286C-0.119732 98.6289 -3.12819 96.5785 -6.52556 95.1391L-7.08746 96.4653C-3.86639 97.83 -1.01548 99.7723 1.46907 102.296L2.49601 101.286ZM-6.51569 95.1433C-9.84292 93.6747 -13.4525 92.8644 -17.3373 92.7065L-17.3952 94.1458C-13.6774 94.2969 -10.2471 95.0707 -7.09733 96.461L-6.51569 95.1433ZM-17.3449 92.7062C-21.1522 92.5919 -24.9734 93.2815 -28.8033 94.7644L-28.2823 96.1077C-24.6165 94.6883 -20.9865 94.038 -17.3875 94.1461L-17.3449 92.7062ZM-28.8033 94.7644C-32.5644 96.2207 -35.8503 98.2836 -38.6535 100.954L-37.659 101.997C-34.9985 99.4625 -31.8754 97.4989 -28.2823 96.1077L-28.8033 94.7644ZM-38.663 100.964C-41.4255 103.694 -43.5791 106.734 -45.1167 110.081L-43.8071 110.683C-42.346 107.502 -40.2959 104.604 -37.6495 101.988L-38.663 100.964ZM-45.1254 110.101C-46.5624 113.492 -47.3568 117.132 -47.513 121.013L-46.0731 121.071C-45.9235 117.353 -45.1638 113.886 -43.7984 110.663L-45.1254 110.101ZM-47.5134 121.026C-47.5977 124.897 -46.9077 128.715 -45.4491 132.475L-44.1056 131.955C-45.4989 128.363 -46.1527 124.732 -46.0727 121.058L-47.5134 121.026ZM-45.4491 132.475C-43.974 136.278 -42.1922 139.383 -40.0895 141.767L-39.0089 140.814C-40.9704 138.591 -42.6739 135.646 -44.1056 131.955L-45.4491 132.475ZM-40.0935 141.762C-38.0078 144.166 -35.9898 146.05 -34.0375 147.397L-33.2194 146.211C-35.0426 144.954 -36.9717 143.162 -39.0049 140.819L-40.0935 141.762ZM-34.0429 147.393C-31.7529 149.004 -29.4101 150.191 -27.0148 150.945L-26.5824 149.571C-28.8196 148.867 -31.0302 147.751 -33.214 146.215L-34.0429 147.393ZM-26.1636 150.599L-21.2066 141.361L-22.4766 140.68L-27.4336 149.918L-26.1636 150.599ZM-18.8855 105.237C-17.0171 105.148 -15.24 105.25 -13.5526 105.541L-13.3081 104.122C-15.1075 103.811 -16.9903 103.704 -18.9549 103.798L-18.8855 105.237ZM-13.5375 105.544C-11.8013 105.805 -10.2509 106.325 -8.87799 107.097L-8.17206 105.842C-9.71153 104.976 -11.4313 104.404 -13.3233 104.119L-13.5375 105.544ZM-8.87433 107.099C-7.39281 107.921 -6.09647 108.967 -4.98236 110.241L-3.89773 109.293C-5.12163 107.894 -6.54861 106.742 -8.17571 105.84L-8.87433 107.099ZM-4.98897 110.233C-3.85191 111.57 -2.90845 113.191 -2.16547 115.107L-0.82189 114.586C-1.61455 112.543 -2.63533 110.777 -3.89113 109.3L-4.98897 110.233ZM-2.16547 115.107C-1.47929 116.876 -1.13906 118.56 -1.12951 120.163L0.311532 120.155C0.300785 118.351 -0.082121 116.494 -0.82189 114.586L-2.16547 115.107ZM-1.12936 120.174C-1.09371 121.858 -1.37073 123.418 -1.95384 124.864L-0.617301 125.403C0.043508 123.765 0.350874 122.009 0.311384 120.144L-1.12936 120.174ZM-1.96976 124.907C-2.46115 126.394 -3.26391 127.78 -4.38883 129.066L-3.30386 130.015C-2.06206 128.595 -1.15764 127.043 -0.601386 125.36L-1.96976 124.907ZM-4.39835 129.077C-5.46796 130.351 -6.74373 131.513 -8.22989 132.562L-7.39856 133.739C-5.8195 132.625 -4.45002 131.38 -3.29433 130.003L-4.39835 129.077ZM-7.14244 132.89L-18.2484 104.257L-19.592 104.778L-8.48601 133.41L-7.14244 132.89Z" fill="black"/>
<path d="M-19.7813 181.384L-20.1553 180.768L-20.7713 181.142L-20.3972 181.757L-19.7813 181.384ZM-13.8749 191.105L-14.4909 191.478L-14.1168 192.094L-13.5009 191.72L-13.8749 191.105ZM23.5682 168.395L24.1841 168.021L23.81 167.406L23.1941 167.779L23.5682 168.395ZM33.3136 184.434L32.6977 184.808L33.0717 185.423L33.6877 185.05L33.3136 184.434ZM42.5528 178.831L42.9269 179.446L43.5428 179.073L43.1688 178.457L42.5528 178.831ZM17.1556 137.031L17.7715 136.658L17.3975 136.042L16.7815 136.415L17.1556 137.031ZM7.91637 142.635L7.5423 142.019L6.92635 142.393L7.30042 143.008L7.91637 142.635ZM17.6618 158.674L18.0359 159.29L18.6518 158.916L18.2778 158.301L17.6618 158.674ZM-20.3972 181.757L-14.4909 191.478L-13.259 190.731L-19.1653 181.01L-20.3972 181.757ZM-13.5009 191.72L23.9422 169.011L23.1941 167.779L-14.249 190.489L-13.5009 191.72ZM22.9522 168.768L32.6977 184.808L33.9296 184.061L24.1841 168.021L22.9522 168.768ZM33.6877 185.05L42.9269 179.446L42.1787 178.215L32.9395 183.819L33.6877 185.05ZM43.1688 178.457L17.7715 136.658L16.5396 137.405L41.9369 179.204L43.1688 178.457ZM16.7815 136.415L7.5423 142.019L8.29044 143.25L17.5296 137.647L16.7815 136.415ZM7.30042 143.008L17.0459 159.048L18.2778 158.301L8.53232 142.261L7.30042 143.008ZM17.2878 158.058L-20.1553 180.768L-19.4072 181.999L18.0359 159.29L17.2878 158.058Z" fill="black"/>
<path d="M4.7546 218.974L4.28227 218.43L3.73793 218.902L4.21026 219.446L4.7546 218.974ZM12.2125 227.563L11.6681 228.035L12.1405 228.578L12.6848 228.107L12.2125 227.563ZM23.3858 217.877L23.415 217.158L23.1294 217.146L22.9135 217.333L23.3858 217.877ZM36.6578 218.415L37.3566 218.591L37.5735 217.732L36.6869 217.696L36.6578 218.415ZM29.3656 247.316L28.6667 247.14L28.5748 247.504L28.8212 247.788L29.3656 247.316ZM37.9421 257.192L37.3978 257.664L38.3063 258.71L38.6415 257.366L37.9421 257.192ZM47.5218 218.782L47.5538 218.063L46.965 218.037L46.8225 218.608L47.5218 218.782ZM78.0789 220.143L78.0469 220.862L79.7225 220.937L78.6233 219.671L78.0789 220.143ZM68.7566 209.407L69.3009 208.936L69.0955 208.699L68.7821 208.688L68.7566 209.407ZM34.5592 208.192L34.0869 207.648L32.7042 208.847L34.5337 208.912L34.5592 208.192ZM53.468 191.801L53.9403 192.345L54.4846 191.874L54.0123 191.33L53.468 191.801ZM46.0101 183.213L46.5544 182.741L46.0821 182.197L45.5378 182.669L46.0101 183.213ZM4.21026 219.446L11.6681 228.035L12.7568 227.091L5.29895 218.503L4.21026 219.446ZM12.6848 228.107L23.8582 218.421L22.9135 217.333L11.7401 227.019L12.6848 228.107ZM23.3567 218.597L36.6287 219.135L36.6869 217.696L23.415 217.158L23.3567 218.597ZM35.959 218.239L28.6667 247.14L30.0644 247.492L37.3566 218.591L35.959 218.239ZM28.8212 247.788L37.3978 257.664L38.4865 256.72L29.9099 246.844L28.8212 247.788ZM38.6415 257.366L48.2212 218.957L46.8225 218.608L37.2428 257.018L38.6415 257.366ZM47.4898 219.502L78.0469 220.862L78.1109 219.423L47.5538 218.063L47.4898 219.502ZM78.6233 219.671L69.3009 208.936L68.2123 209.879L77.5346 220.615L78.6233 219.671ZM68.7821 208.688L34.5847 207.472L34.5337 208.912L68.7311 210.127L68.7821 208.688ZM35.0315 208.736L53.9403 192.345L52.9956 191.258L34.0869 207.648L35.0315 208.736ZM54.0123 191.33L46.5544 182.741L45.4657 183.685L52.9236 192.273L54.0123 191.33ZM45.5378 182.669L4.28227 218.43L5.22694 219.518L46.4824 183.757L45.5378 182.669Z" fill="black"/>
<path d="M54.6225 271.431L54.1745 271.995L54.4502 272.214L54.7922 272.131L54.6225 271.431ZM99.2216 260.626L99.6696 260.062L99.3939 259.843L99.0519 259.926L99.2216 260.626ZM99.3999 260.767L99.9645 261.215L100.412 260.651L99.8479 260.203L99.3999 260.767ZM76.9076 289.094L76.343 288.647L75.8951 289.211L76.4596 289.659L76.9076 289.094ZM85.8216 296.16L85.3736 296.724L85.9382 297.171L86.3862 296.607L85.8216 296.16ZM119.772 253.402L120.337 253.849L120.785 253.285L120.22 252.838L119.772 253.402ZM111.75 247.043L112.198 246.479L111.922 246.26L111.58 246.343L111.75 247.043ZM67.1505 257.848L66.7026 258.412L66.9782 258.631L67.3202 258.548L67.1505 257.848ZM66.9722 257.707L66.4077 257.259L65.9597 257.824L66.5243 258.271L66.9722 257.707ZM89.4646 229.38L90.0291 229.827L90.4771 229.263L89.9125 228.816L89.4646 229.38ZM80.5505 222.314L80.9985 221.75L80.4339 221.303L79.986 221.867L80.5505 222.314ZM46.5998 265.072L46.0353 264.625L45.5873 265.189L46.1519 265.636L46.5998 265.072ZM54.7922 272.131L99.3913 261.326L99.0519 259.926L54.4528 270.731L54.7922 272.131ZM98.7737 261.19L98.9519 261.331L99.8479 260.203L99.6696 260.062L98.7737 261.19ZM98.8354 260.32L76.343 288.647L77.4721 289.542L99.9645 261.215L98.8354 260.32ZM76.4596 289.659L85.3736 296.724L86.2696 295.595L77.3555 288.53L76.4596 289.659ZM86.3862 296.607L120.337 253.849L119.208 252.954L85.2571 295.712L86.3862 296.607ZM120.22 252.838L112.198 246.479L111.302 247.607L119.324 253.966L120.22 252.838ZM111.58 246.343L66.9808 257.148L67.3202 258.548L111.919 247.743L111.58 246.343ZM67.5985 257.284L67.4202 257.143L66.5243 258.271L66.7026 258.412L67.5985 257.284ZM67.5368 258.154L90.0291 229.827L88.9 228.932L66.4077 257.259L67.5368 258.154ZM89.9125 228.816L80.9985 221.75L80.1026 222.879L89.0166 229.944L89.9125 228.816ZM79.986 221.867L46.0353 264.625L47.1644 265.52L81.1151 222.762L79.986 221.867ZM46.1519 265.636L54.1745 271.995L55.0704 270.867L47.0478 264.508L46.1519 265.636Z" fill="black"/>
<path d="M160.175 249.81L159.968 250.5L159.979 250.503L160.175 249.81ZM148.943 248.532L148.899 247.813L148.892 247.813L148.943 248.532ZM137.51 251.879L137.833 252.523L137.84 252.52L137.51 251.879ZM126.432 260.52L126.957 261.012L126.959 261.01L126.432 260.52ZM111.275 290.073L110.564 289.957L110.562 289.968L111.275 290.073ZM111.503 302.84L110.799 302.995L110.801 303.004L110.803 303.014L111.503 302.84ZM116.488 313.059L115.923 313.506L115.931 313.516L116.488 313.059ZM135.673 323.009L135.632 323.728L135.639 323.728L135.673 323.009ZM146.22 321.636L145.999 320.951L146.22 321.636ZM155.482 316.538L155.941 317.094L155.945 317.09L155.482 316.538ZM165.396 297.207L164.678 297.154L164.677 297.16L165.396 297.207ZM159.488 277.57L158.912 278.003L158.918 278.011L158.924 278.019L159.488 277.57ZM144.667 268.833L144.595 269.549L144.667 268.833ZM138.509 268.875L138.606 269.589L138.608 269.588L138.509 268.875ZM132.591 270.445L132.262 271.086L132.559 271.238L132.866 271.11L132.591 270.445ZM132.388 270.341L131.805 269.92L131.312 270.6L132.06 270.982L132.388 270.341ZM137.995 264.395L138.437 264.963L138.444 264.958L137.995 264.395ZM144.29 260.845L144.053 260.164L144.053 260.165L144.29 260.845ZM151.426 259.642L151.423 258.922L151.423 258.922L151.426 259.642ZM159.048 260.733L158.851 261.426L158.859 261.428L159.048 260.733ZM168.388 262.959L168.248 263.666L168.261 263.668L168.388 262.959ZM175.501 264.045L175.595 263.331L175.584 263.329L175.501 264.045ZM181.399 264.509L181.392 265.229L182.163 265.236L182.118 264.467L181.399 264.509ZM180.749 253.314L181.468 253.272L181.43 252.613L180.77 252.594L180.749 253.314ZM174.851 252.85L174.751 253.563L174.758 253.564L174.765 253.565L174.851 252.85ZM168.348 251.821L168.205 252.527L168.215 252.529L168.225 252.531L168.348 251.821ZM128.091 282.709L127.631 282.154L127.621 282.163L128.091 282.709ZM133.721 279.458L133.96 280.137L133.721 279.458ZM139.785 278.601L139.742 279.32L139.755 279.32L139.785 278.601ZM150.619 284.147L150.045 284.583L150.055 284.596L150.066 284.609L150.619 284.147ZM153.566 289.617L154.257 289.413L153.566 289.617ZM154.112 296.03L153.395 295.959L153.393 295.975L153.392 295.99L154.112 296.03ZM147.935 308.074L147.475 307.52L147.465 307.528L147.935 308.074ZM142.458 311.276L142.696 311.955L142.458 311.276ZM136.241 312.182L136.198 312.901L136.211 312.902L136.241 312.182ZM125.407 306.636L124.833 307.072L124.843 307.085L124.854 307.098L125.407 306.636ZM122.613 301.117L121.922 301.32L122.613 301.117ZM121.914 294.753L121.197 294.682L121.195 294.697L121.195 294.713L121.914 294.753ZM160.383 249.12C156.681 248.009 152.852 247.574 148.899 247.813L148.986 249.25C152.773 249.022 156.432 249.439 159.968 250.5L160.383 249.12ZM148.892 247.813C144.981 248.089 141.076 249.237 137.181 251.239L137.84 252.52C141.583 250.595 145.3 249.511 148.993 249.25L148.892 247.813ZM137.188 251.236C133.31 253.178 129.55 256.117 125.905 260.029L126.959 261.01C130.516 257.194 134.142 254.373 137.833 252.523L137.188 251.236ZM125.907 260.027C122.282 263.885 118.906 268.88 115.77 274.995L117.052 275.652C120.145 269.622 123.449 264.748 126.957 261.012L125.907 260.027ZM115.77 274.995C113.079 280.242 111.338 285.23 110.564 289.957L111.986 290.189C112.731 285.641 114.414 280.796 117.052 275.652L115.77 274.995ZM110.562 289.968C109.86 294.71 109.933 299.055 110.799 302.995L112.206 302.685C111.385 298.947 111.307 294.781 111.988 290.178L110.562 289.968ZM110.803 303.014C111.773 306.917 113.479 310.417 115.923 313.506L117.053 312.613C114.74 309.688 113.123 306.376 112.202 302.666L110.803 303.014ZM115.931 313.516C118.409 316.535 121.449 318.964 125.044 320.804L125.701 319.522C122.276 317.769 119.393 315.462 117.045 312.602L115.931 313.516ZM125.044 320.804C128.436 322.541 131.967 323.518 135.632 323.728L135.715 322.29C132.259 322.092 128.923 321.172 125.701 319.522L125.044 320.804ZM135.639 323.728C139.385 323.903 142.987 323.435 146.441 322.321L145.999 320.951C142.715 322.009 139.286 322.457 135.707 322.29L135.639 323.728ZM146.441 322.321C149.9 321.206 153.067 319.462 155.941 317.094L155.024 315.983C152.287 318.239 149.28 319.893 145.999 320.951L146.441 322.321ZM155.945 317.09C158.862 314.646 161.223 311.658 163.03 308.135L161.748 307.478C160.025 310.838 157.782 313.671 155.019 315.986L155.945 317.09ZM163.03 308.135C164.837 304.612 165.868 300.984 166.115 297.254L164.677 297.16C164.444 300.681 163.471 304.119 161.748 307.478L163.03 308.135ZM166.115 297.26C166.396 293.484 166.016 289.881 164.971 286.458L163.592 286.88C164.583 290.121 164.946 293.544 164.678 297.154L166.115 297.26ZM164.971 286.458C163.926 283.039 162.286 279.926 160.052 277.122L158.924 278.019C161.046 280.682 162.601 283.634 163.592 286.88L164.971 286.458ZM160.065 277.138C157.925 274.286 155.284 272.053 152.148 270.447L151.49 271.729C154.429 273.234 156.901 275.323 158.912 278.003L160.065 277.138ZM152.148 270.447C149.588 269.137 147.117 268.352 144.738 268.116L144.595 269.549C146.758 269.764 149.055 270.483 151.49 271.729L152.148 270.447ZM144.738 268.116C142.424 267.886 140.313 267.899 138.411 268.162L138.608 269.588C140.375 269.344 142.369 269.328 144.595 269.549L144.738 268.116ZM138.413 268.161C136.249 268.454 134.216 268.993 132.315 269.78L132.866 271.11C134.645 270.374 136.557 269.866 138.606 269.589L138.413 268.161ZM132.92 269.804L132.717 269.7L132.06 270.982L132.262 271.086L132.92 269.804ZM132.972 270.763C134.694 268.384 136.517 266.455 138.437 264.963L137.553 263.826C135.507 265.416 133.592 267.45 131.805 269.92L132.972 270.763ZM138.444 264.958C140.405 263.395 142.433 262.254 144.526 261.525L144.053 260.165C141.789 260.953 139.62 262.179 137.546 263.832L138.444 264.958ZM144.526 261.525C146.73 260.76 149.029 260.372 151.428 260.362L151.423 258.922C148.869 258.932 146.411 259.346 144.053 260.164L144.526 261.525ZM151.428 260.362C153.832 260.353 156.305 260.705 158.851 261.426L159.244 260.04C156.581 259.286 153.973 258.912 151.423 258.922L151.428 260.362ZM158.859 261.428C162.389 262.381 165.519 263.127 168.248 263.665L168.528 262.252C165.84 261.722 162.743 260.984 159.236 260.038L158.859 261.428ZM168.261 263.668C171.08 264.171 173.467 264.536 175.418 264.76L175.584 263.329C173.672 263.11 171.317 262.75 168.515 262.25L168.261 263.668ZM175.407 264.759C177.663 265.054 179.659 265.212 181.392 265.229L181.406 263.788C179.747 263.772 177.811 263.621 175.595 263.331L175.407 264.759ZM182.118 264.467L181.468 253.272L180.029 253.356L180.68 264.551L182.118 264.467ZM180.77 252.594C179.032 252.544 177.088 252.391 174.936 252.135L174.765 253.565C176.95 253.826 178.938 253.982 180.728 254.034L180.77 252.594ZM174.951 252.137C173.131 251.883 170.971 251.542 168.47 251.111L168.225 252.531C170.736 252.963 172.912 253.307 174.751 253.563L174.951 252.137ZM168.491 251.115C166.041 250.621 163.335 249.955 160.372 249.117L159.979 250.503C162.97 251.349 165.712 252.024 168.205 252.527L168.491 251.115ZM124.556 288.438C125.625 286.354 126.961 284.63 128.561 283.255L127.621 282.163C125.867 283.671 124.419 285.548 123.273 287.782L124.556 288.438ZM128.551 283.263C130.271 281.837 132.074 280.799 133.96 280.137L133.483 278.778C131.419 279.502 129.469 280.631 127.631 282.155L128.551 283.263ZM133.96 280.137C135.845 279.475 137.771 279.204 139.742 279.32L139.828 277.882C137.663 277.754 135.546 278.054 133.483 278.778L133.96 280.137ZM139.755 279.32C141.824 279.405 143.752 279.907 145.547 280.826L146.204 279.544C144.219 278.528 142.087 277.974 139.815 277.881L139.755 279.32ZM145.547 280.826C147.342 281.745 148.839 282.996 150.045 284.583L151.193 283.711C149.854 281.951 148.189 280.56 146.204 279.544L145.547 280.826ZM150.066 284.609C151.378 286.176 152.313 287.912 152.874 289.82L154.257 289.413C153.638 287.31 152.608 285.399 151.171 283.684L150.066 284.609ZM152.874 289.82C153.436 291.73 153.613 293.773 153.395 295.959L154.829 296.101C155.064 293.748 154.876 291.516 154.257 289.413L152.874 289.82ZM153.392 295.99C153.274 298.118 152.688 300.218 151.623 302.295L152.905 302.952C154.055 300.71 154.701 298.415 154.831 296.07L153.392 295.99ZM151.623 302.295C150.558 304.372 149.175 306.111 147.475 307.52L148.395 308.628C150.252 307.088 151.756 305.193 152.905 302.952L151.623 302.295ZM147.465 307.528C145.852 308.915 144.104 309.935 142.219 310.596L142.696 311.955C144.76 311.231 146.664 310.117 148.405 308.62L147.465 307.528ZM142.219 310.596C140.334 311.258 138.353 311.548 136.27 311.463L136.211 312.902C138.469 312.994 140.632 312.68 142.696 311.955L142.219 310.596ZM136.283 311.463C134.317 311.348 132.435 310.83 130.632 309.907L129.975 311.189C131.951 312.201 134.027 312.773 136.198 312.901L136.283 311.463ZM130.632 309.907C128.829 308.984 127.273 307.741 125.96 306.174L124.854 307.098C126.29 308.812 127.998 310.177 129.975 311.189L130.632 309.907ZM125.981 306.2C124.761 304.596 123.87 302.835 123.304 300.913L121.922 301.32C122.537 303.41 123.508 305.329 124.833 307.072L125.981 306.2ZM123.304 300.913C122.739 298.991 122.513 296.953 122.633 294.792L121.195 294.713C121.066 297.026 121.307 299.23 121.922 301.32L123.304 300.913ZM122.631 294.824C122.848 292.65 123.487 290.522 124.556 288.438L123.273 287.782C122.128 290.016 121.433 292.317 121.197 294.682L122.631 294.824Z" fill="black"/>
<path d="M211.582 332.908L212.236 332.606L211.901 331.879L211.213 332.289L211.582 332.908ZM206.429 335.229L206.208 334.543L206.2 334.546L206.429 335.229ZM200.789 336.348L200.724 335.631L200.715 335.632L200.789 336.348ZM188.393 332.95L187.96 333.526L187.97 333.533L187.98 333.54L188.393 332.95ZM184.168 328.677L183.559 329.062L183.57 329.079L183.581 329.095L184.168 328.677ZM181.879 323.416L181.176 323.576L181.179 323.588L181.182 323.6L181.879 323.416ZM181.559 317.887L181.756 317.194L180.938 316.962L180.843 317.807L181.559 317.887ZM222.046 329.373L221.849 330.066L222.444 330.235L222.701 329.673L222.046 329.373ZM222.669 328.013L222.033 327.676L222.023 327.694L222.014 327.714L222.669 328.013ZM225.102 313.215L224.385 313.287L224.386 313.294L224.386 313.301L225.102 313.215ZM222.041 303.597L221.406 303.938L221.412 303.948L221.417 303.958L222.041 303.597ZM215.467 295.938L215.018 296.502L215.024 296.506L215.029 296.511L215.467 295.938ZM194.614 290.259L194.708 290.973L194.716 290.972L194.614 290.259ZM184.54 293.667L184.891 294.296L184.9 294.291L184.54 293.667ZM176.284 300.665L175.727 300.209L175.722 300.214L176.284 300.665ZM170.189 322.11L169.473 322.193L169.475 322.206L170.189 322.11ZM173.501 332.508L172.866 332.85L172.871 332.859L172.877 332.868L173.501 332.508ZM180.607 340.791L180.15 341.348L180.16 341.356L180.607 340.791ZM201.133 347.205L201.084 346.486L201.078 346.487L201.133 347.205ZM209.1 345.8L208.88 345.115L208.873 345.117L209.1 345.8ZM215.971 342.429L216.389 343.015L216.875 342.669L216.625 342.127L215.971 342.429ZM184.202 308.587L183.607 308.181L183.043 309.007L184.005 309.28L184.202 308.587ZM187.759 304.394L188.252 304.919L188.257 304.913L188.263 304.908L187.759 304.394ZM192.02 301.465L192.309 302.124L192.313 302.123L192.02 301.465ZM197.113 300.19L197.071 299.471L197.061 299.471L197.113 300.19ZM207.836 303.232L207.406 303.81L207.415 303.816L207.836 303.232ZM211.279 306.928L210.662 307.3L210.674 307.319L210.687 307.338L211.279 306.928ZM213.255 311.627L212.55 311.774L212.551 311.782L212.553 311.789L213.255 311.627ZM213.747 316.969L213.55 317.662L214.438 317.914L214.467 316.992L213.747 316.969ZM211.213 332.289C209.648 333.222 207.98 333.973 206.208 334.543L206.649 335.915C208.522 335.312 210.29 334.516 211.951 333.526L211.213 332.289ZM206.2 334.546C204.607 335.08 202.784 335.444 200.724 335.631L200.854 337.066C203.003 336.87 204.939 336.488 206.657 335.912L206.2 334.546ZM200.715 335.632C198.79 335.833 196.701 335.622 194.438 334.98L194.044 336.366C196.45 337.049 198.726 337.288 200.864 337.065L200.715 335.632ZM194.438 334.98C192.32 334.379 190.445 333.504 188.806 332.359L187.98 333.54C189.762 334.785 191.785 335.725 194.044 336.366L194.438 334.98ZM188.826 332.374C187.19 331.147 185.835 329.774 184.755 328.259L183.581 329.095C184.755 330.741 186.217 332.218 187.96 333.526L188.826 332.374ZM184.777 328.292C183.783 326.721 183.049 325.036 182.576 323.233L181.182 323.6C181.693 325.545 182.486 327.366 183.559 329.062L184.777 328.292ZM182.582 323.257C182.18 321.48 182.078 319.718 182.275 317.967L180.843 317.807C180.628 319.722 180.74 321.647 181.176 323.576L182.582 323.257ZM181.362 318.58L221.849 330.066L222.243 328.681L181.756 317.194L181.362 318.58ZM222.046 329.373C222.701 329.673 222.701 329.673 222.701 329.673C222.701 329.673 222.701 329.673 222.701 329.673C222.701 329.673 222.701 329.673 222.701 329.673C222.701 329.673 222.701 329.673 222.701 329.673C222.701 329.673 222.701 329.673 222.701 329.673C222.701 329.673 222.701 329.673 222.701 329.673C222.702 329.673 222.701 329.673 222.702 329.673C222.702 329.672 222.702 329.673 222.702 329.672C222.702 329.671 222.703 329.669 222.704 329.668C222.704 329.667 222.705 329.666 222.705 329.665C222.706 329.664 222.705 329.665 222.706 329.664C222.706 329.663 222.706 329.664 222.706 329.663C222.707 329.661 222.705 329.665 222.706 329.662C222.709 329.657 222.705 329.666 222.707 329.661C222.708 329.66 222.71 329.654 222.711 329.652C222.717 329.64 222.728 329.615 222.74 329.588C222.763 329.538 222.76 329.546 222.789 329.482C222.805 329.448 222.803 329.451 222.821 329.413C222.827 329.4 222.85 329.35 222.857 329.333C222.874 329.297 222.922 329.192 222.945 329.142C222.945 329.141 222.946 329.14 222.946 329.139C222.947 329.137 222.947 329.136 222.948 329.135C222.956 329.117 222.942 329.147 222.951 329.128C222.951 329.128 222.954 329.122 222.954 329.122C222.96 329.109 222.951 329.128 222.957 329.115C222.967 329.094 222.96 329.109 222.97 329.087C222.987 329.05 222.965 329.097 222.983 329.059C222.987 329.049 222.985 329.055 222.989 329.045C222.99 329.044 222.99 329.042 222.991 329.041C222.991 329.04 222.992 329.039 222.993 329.038C222.993 329.036 222.994 329.035 222.994 329.034C222.995 329.033 222.995 329.031 222.996 329.03C223.002 329.016 223.017 328.985 223.023 328.97C223.027 328.963 223.034 328.948 223.037 328.94C223.038 328.938 223.039 328.937 223.039 328.936C223.04 328.934 223.04 328.933 223.041 328.932C223.042 328.93 223.042 328.929 223.043 328.928C223.043 328.927 223.044 328.925 223.045 328.924C223.045 328.922 223.051 328.91 223.052 328.908C223.053 328.906 223.11 328.781 223.113 328.775C223.142 328.712 223.115 328.769 223.145 328.705C223.156 328.68 223.15 328.693 223.162 328.669C223.162 328.667 223.163 328.666 223.164 328.664C223.164 328.663 223.165 328.661 223.166 328.659C223.166 328.658 223.167 328.656 223.168 328.655C223.169 328.653 223.169 328.652 223.17 328.65C223.171 328.649 223.171 328.647 223.172 328.646C223.173 328.644 223.173 328.643 223.174 328.641C223.175 328.639 223.176 328.638 223.176 328.636C223.177 328.635 223.178 328.633 223.178 328.632C223.212 328.559 223.285 328.4 223.324 328.313L222.014 327.714C221.96 327.833 221.917 327.927 221.868 328.032C221.856 328.059 221.864 328.043 221.851 328.069C221.839 328.098 221.848 328.077 221.835 328.105C221.825 328.127 221.837 328.102 221.827 328.123C221.821 328.135 221.824 328.13 221.819 328.141C221.816 328.147 221.814 328.152 221.811 328.158C221.807 328.167 221.807 328.167 221.803 328.176C221.793 328.196 221.75 328.292 221.742 328.309C221.714 328.37 221.741 328.311 221.713 328.371C221.702 328.395 221.696 328.408 221.686 328.431C221.67 328.465 221.675 328.455 221.66 328.488C221.656 328.495 221.638 328.536 221.635 328.542C221.594 328.631 221.581 328.659 221.547 328.734C221.506 328.824 221.446 328.955 221.43 328.989C221.417 329.018 221.408 329.037 221.401 329.053C221.393 329.07 221.404 329.046 221.397 329.062C221.391 329.074 221.402 329.05 221.396 329.063C221.396 329.063 221.396 329.064 221.396 329.064C221.393 329.071 221.398 329.058 221.395 329.065C221.394 329.067 221.394 329.067 221.394 329.068C221.393 329.07 221.394 329.069 221.393 329.07C221.393 329.07 221.393 329.07 221.393 329.07C221.393 329.07 221.393 329.07 221.393 329.07C221.393 329.071 221.393 329.07 221.393 329.071C221.392 329.072 221.392 329.072 221.392 329.072C221.392 329.073 221.392 329.073 221.392 329.073C221.391 329.074 221.392 329.072 221.392 329.073C221.392 329.073 221.392 329.073 221.391 329.073C221.391 329.074 221.392 329.073 221.391 329.074C221.391 329.075 221.392 329.073 221.391 329.074C221.391 329.074 221.391 329.073 221.391 329.074C221.391 329.074 221.391 329.074 221.391 329.074C221.391 329.074 221.391 329.074 222.046 329.373ZM223.306 328.351C223.849 327.328 224.358 325.956 224.841 324.255L223.455 323.862C222.985 325.516 222.509 326.78 222.033 327.676L223.306 328.351ZM224.841 324.255C225.922 320.452 226.251 316.741 225.817 313.128L224.386 313.301C224.796 316.706 224.489 320.225 223.455 323.862L224.841 324.255ZM225.819 313.143C225.46 309.557 224.41 306.252 222.665 303.236L221.417 303.958C223.056 306.789 224.046 309.896 224.385 313.287L225.819 313.143ZM222.676 303.256C221.027 300.187 218.768 297.556 215.905 295.366L215.029 296.511C217.736 298.581 219.858 301.056 221.406 303.938L222.676 303.256ZM215.916 295.375C213.071 293.107 209.742 291.437 205.938 290.358L205.544 291.744C209.181 292.776 212.336 294.364 215.018 296.502L215.916 295.375ZM205.938 290.358C202.124 289.276 198.313 289.003 194.513 289.546L194.716 290.972C198.31 290.459 201.917 290.715 205.544 291.744L205.938 290.358ZM194.52 289.545C190.824 290.032 187.375 291.198 184.18 293.043L184.9 294.291C187.93 292.542 191.197 291.436 194.708 290.973L194.52 289.545ZM184.189 293.038C181.013 294.809 178.193 297.203 175.727 300.209L176.841 301.122C179.201 298.245 181.884 295.973 184.891 294.296L184.189 293.038ZM175.722 300.214C173.338 303.185 171.587 306.65 170.464 310.601L171.85 310.994C172.925 307.213 174.592 303.924 176.846 301.116L175.722 300.214ZM170.464 310.601C169.362 314.481 169.03 318.346 169.473 322.193L170.905 322.027C170.484 318.376 170.797 314.701 171.85 310.994L170.464 310.601ZM169.475 322.206C169.991 326.056 171.12 329.606 172.866 332.85L174.135 332.167C172.476 329.084 171.398 325.702 170.903 322.014L169.475 322.206ZM172.877 332.868C174.719 336.059 177.146 338.885 180.15 341.348L181.064 340.233C178.186 337.874 175.875 335.179 174.125 332.148L172.877 332.868ZM180.16 341.356C183.199 343.755 186.663 345.504 190.543 346.605L190.937 345.219C187.23 344.167 183.938 342.502 181.053 340.225L180.16 341.356ZM190.543 346.605C194.467 347.718 198.019 348.166 201.188 347.923L201.078 346.487C198.122 346.713 194.745 346.299 190.937 345.219L190.543 346.605ZM201.182 347.924C204.357 347.707 207.076 347.231 209.327 346.484L208.873 345.117C206.772 345.815 204.179 346.275 201.084 346.487L201.182 347.924ZM209.321 346.486C211.986 345.628 214.344 344.473 216.389 343.015L215.553 341.843C213.643 343.204 211.421 344.297 208.88 345.115L209.321 346.486ZM216.625 342.127L212.236 332.606L210.928 333.209L215.316 342.731L216.625 342.127ZM184.797 308.992C185.851 307.447 187.003 306.09 188.252 304.919L187.266 303.868C185.934 305.118 184.715 306.556 183.607 308.181L184.797 308.992ZM188.263 304.908C189.517 303.68 190.866 302.755 192.309 302.124L191.732 300.805C190.114 301.512 188.622 302.541 187.255 303.879L188.263 304.908ZM192.313 302.123C193.861 301.435 195.477 301.03 197.164 300.908L197.061 299.471C195.207 299.606 193.428 300.051 191.728 300.806L192.313 302.123ZM197.154 300.909C198.907 300.807 200.769 301.03 202.745 301.591L203.139 300.205C201.03 299.607 199.006 299.358 197.071 299.471L197.154 300.909ZM202.745 301.591C204.571 302.109 206.12 302.852 207.406 303.81L208.267 302.655C206.821 301.577 205.107 300.763 203.139 300.205L202.745 301.591ZM207.415 303.816C208.78 304.802 209.859 305.963 210.662 307.3L211.897 306.557C210.987 305.043 209.771 303.74 208.258 302.648L207.415 303.816ZM210.687 307.338C211.578 308.626 212.201 310.102 212.55 311.774L213.96 311.48C213.575 309.633 212.881 307.977 211.872 306.519L210.687 307.338ZM212.553 311.789C212.926 313.41 213.085 315.128 213.027 316.946L214.467 316.992C214.529 315.06 214.36 313.217 213.957 311.465L212.553 311.789ZM213.944 316.276L184.399 307.894L184.005 309.28L213.55 317.662L213.944 316.276Z" fill="black"/>
<path d="M273.518 357.293L273.757 357.973L273.764 357.97L273.771 357.968L273.518 357.293ZM282.017 352.003L281.523 351.479L281.522 351.48L282.017 352.003ZM288.261 343.349L287.618 343.025L287.612 343.037L288.261 343.349ZM289.976 320.665L289.287 320.876L289.292 320.889L289.976 320.665ZM285.096 311.285L284.522 311.72L284.528 311.729L284.535 311.737L285.096 311.285ZM277.489 304.779L277.138 305.408L277.144 305.412L277.151 305.415L277.489 304.779ZM259.402 302.615L259.193 301.926L259.185 301.928L259.402 302.615ZM253.499 305.25L253.87 305.867L253.878 305.862L253.887 305.857L253.499 305.25ZM248.628 309.331L248.573 310.049L248.939 310.077L249.177 309.797L248.628 309.331ZM248.514 309.322L247.796 309.268L247.742 309.986L248.46 310.04L248.514 309.322ZM249.097 301.609L249.816 301.664L249.87 300.945L249.152 300.891L249.097 301.609ZM237.755 300.753L237.81 300.035L237.091 299.981L237.037 300.699L237.755 300.753ZM231.837 379.014L231.119 378.96L231.065 379.678L231.783 379.732L231.837 379.014ZM243.179 379.87L243.125 380.588L243.843 380.642L243.898 379.924L243.179 379.87ZM245.564 348.339L245.618 347.621L244.9 347.566L244.845 348.285L245.564 348.339ZM245.677 348.347L246.29 347.969L246.097 347.657L245.732 347.629L245.677 348.347ZM249.88 353.113L250.354 352.571L250.347 352.565L250.339 352.558L249.88 353.113ZM255.319 356.604L255.002 357.251L255.009 357.254L255.319 356.604ZM248.818 321.893L248.175 321.568L248.17 321.579L248.818 321.893ZM252.755 316.6L252.272 316.066L252.271 316.066L252.755 316.6ZM258.247 313.365L258.477 314.048L258.489 314.043L258.247 313.365ZM271.063 314.332L270.713 314.962L270.727 314.97L270.742 314.977L271.063 314.332ZM276.006 318.355L275.437 318.797L275.448 318.811L275.46 318.825L276.006 318.355ZM279.102 324.179L278.411 324.383L278.416 324.397L278.42 324.412L279.102 324.179ZM278.03 338.356L277.387 338.031L277.381 338.043L278.03 338.356ZM274.094 343.648L273.611 343.114L273.61 343.114L274.094 343.648ZM268.602 346.884L268.832 347.567L268.844 347.562L268.602 346.884ZM255.785 345.917L255.435 346.546L255.449 346.554L255.464 346.561L255.785 345.917ZM250.842 341.893L250.273 342.335L250.284 342.349L250.296 342.363L250.842 341.893ZM247.746 336.07L247.055 336.274L247.06 336.289L247.065 336.303L247.746 336.07ZM263.555 359.317C267.057 359.581 270.46 359.133 273.757 357.973L273.279 356.614C270.171 357.707 266.968 358.129 263.664 357.88L263.555 359.317ZM273.771 357.968C277.069 356.732 279.984 354.917 282.512 352.526L281.522 351.48C279.136 353.737 276.385 355.449 273.265 356.619L273.771 357.968ZM282.511 352.527C285.119 350.068 287.251 347.11 288.91 343.661L287.612 343.037C286.023 346.339 283.993 349.15 281.523 351.479L282.511 352.527ZM288.904 343.673C290.65 340.212 291.677 336.393 291.992 332.224L290.555 332.115C290.253 336.112 289.271 339.746 287.618 343.025L288.904 343.673ZM291.992 332.224C292.307 328.055 291.866 324.124 290.661 320.441L289.292 320.889C290.433 324.378 290.858 328.118 290.555 332.115L291.992 332.224ZM290.665 320.453C289.543 316.793 287.875 313.583 285.657 310.833L284.535 311.737C286.628 314.332 288.214 317.375 289.288 320.876L290.665 320.453ZM285.671 310.85C283.534 308.026 280.919 305.788 277.828 304.143L277.151 305.415C280.054 306.96 282.51 309.06 284.522 311.72L285.671 310.85ZM277.841 304.15C274.758 302.429 271.46 301.434 267.952 301.17L267.844 302.606C271.141 302.855 274.237 303.788 277.138 305.408L277.841 304.15ZM267.952 301.17C264.637 300.919 261.712 301.163 259.193 301.926L259.61 303.305C261.917 302.607 264.656 302.366 267.844 302.606L267.952 301.17ZM259.185 301.928C256.805 302.678 254.776 303.58 253.111 304.642L253.887 305.857C255.418 304.879 257.325 304.025 259.618 303.303L259.185 301.928ZM253.128 304.632C251.154 305.818 249.469 307.228 248.079 308.864L249.177 309.797C250.458 308.289 252.02 306.979 253.87 305.867L253.128 304.632ZM248.682 308.612L248.569 308.604L248.46 310.04L248.573 310.049L248.682 308.612ZM249.233 309.376L249.816 301.664L248.379 301.555L247.796 309.268L249.233 309.376ZM249.152 300.891L237.81 300.035L237.701 301.472L249.043 302.328L249.152 300.891ZM237.037 300.699L231.119 378.96L232.556 379.068L238.474 300.808L237.037 300.699ZM231.783 379.732L243.125 380.588L243.234 379.152L231.892 378.295L231.783 379.732ZM243.898 379.924L246.282 348.393L244.845 348.285L242.461 379.816L243.898 379.924ZM245.509 349.057L245.623 349.066L245.732 347.629L245.618 347.621L245.509 349.057ZM245.064 348.726C246.193 350.553 247.647 352.2 249.42 353.668L250.339 352.558C248.677 351.182 247.33 349.652 246.29 347.969L245.064 348.726ZM249.405 353.655C250.891 354.956 252.761 356.152 255.002 357.251L255.636 355.957C253.478 354.899 251.722 353.768 250.354 352.571L249.405 353.655ZM255.009 357.254C257.385 358.386 260.24 359.066 263.555 359.317L263.664 357.88C260.476 357.639 257.805 356.99 255.629 355.953L255.009 357.254ZM247.757 328.885C247.946 326.392 248.519 324.169 249.467 322.206L248.17 321.579C247.134 323.725 246.521 326.127 246.321 328.776L247.757 328.885ZM249.461 322.217C250.5 320.161 251.761 318.471 253.238 317.134L252.271 316.066C250.646 317.537 249.283 319.375 248.175 321.568L249.461 322.217ZM253.237 317.135C254.799 315.726 256.544 314.698 258.477 314.047L258.017 312.682C255.892 313.398 253.976 314.528 252.272 316.066L253.237 317.135ZM258.489 314.043C260.503 313.324 262.591 313.046 264.76 313.21L264.869 311.773C262.502 311.595 260.211 311.899 258.005 312.686L258.489 314.043ZM264.76 313.21C266.93 313.374 268.911 313.959 270.713 314.962L271.414 313.703C269.421 312.594 267.236 311.952 264.869 311.773L264.76 313.21ZM270.742 314.977C272.627 315.916 274.189 317.189 275.437 318.797L276.575 317.914C275.191 316.129 273.457 314.72 271.385 313.687L270.742 314.977ZM275.46 318.825C276.785 320.367 277.771 322.215 278.411 324.383L279.793 323.974C279.101 321.631 278.023 319.597 276.553 317.886L275.46 318.825ZM278.42 324.412C279.133 326.495 279.401 328.774 279.213 331.259L280.65 331.368C280.851 328.711 280.566 326.234 279.784 323.945L278.42 324.412ZM279.213 331.259C279.025 333.744 278.414 335.998 277.387 338.031L278.673 338.681C279.792 336.465 280.449 334.025 280.65 331.368L279.213 331.259ZM277.381 338.043C276.428 340.017 275.172 341.705 273.611 343.114L274.576 344.183C276.28 342.645 277.648 340.804 278.679 338.669L277.381 338.043ZM273.61 343.114C272.134 344.45 270.387 345.482 268.36 346.206L268.844 347.562C271.037 346.78 272.951 345.654 274.577 344.182L273.61 343.114ZM268.372 346.201C266.44 346.852 264.389 347.098 262.21 346.934L262.101 348.37C264.46 348.549 266.706 348.283 268.832 347.567L268.372 346.201ZM262.21 346.934C260.032 346.769 257.999 346.215 256.106 345.272L255.464 346.561C257.528 347.59 259.743 348.192 262.101 348.37L262.21 346.934ZM256.135 345.287C254.311 344.272 252.73 342.985 251.388 341.424L250.296 342.363C251.75 344.054 253.464 345.449 255.435 346.546L256.135 345.287ZM251.411 341.451C250.147 339.823 249.151 337.953 248.428 335.837L247.065 336.303C247.836 338.559 248.904 340.571 250.273 342.335L251.411 341.451ZM248.437 335.866C247.798 333.702 247.569 331.377 247.757 328.885L246.321 328.776C246.12 331.426 246.362 333.927 247.055 336.274L248.437 335.866Z" fill="black"/>
<path d="M323.157 278.77L323.378 279.456L323.388 279.452L323.157 278.77ZM313.178 284.076L312.735 283.508L312.73 283.512L313.178 284.076ZM305.658 293.307L306.289 293.655L306.293 293.648L305.658 293.307ZM301.43 306.699L302.142 306.808L302.143 306.805L301.43 306.699ZM305.7 339.637L305.048 339.944L305.053 339.954L305.7 339.637ZM313.126 350.031L312.634 350.557L312.641 350.563L312.648 350.57L313.126 350.031ZM323.028 355.631L322.815 356.32L322.828 356.323L323.028 355.631ZM344.475 352.971L344.849 353.587L344.855 353.583L344.475 352.971ZM352.386 345.868L351.815 345.428L352.386 345.868ZM357.126 336.423L357.819 336.622L357.82 336.616L357.126 336.423ZM354.333 314.878L353.711 315.242L353.714 315.247L354.333 314.878ZM338.332 302.039L338.102 302.722L338.112 302.725L338.122 302.728L338.332 302.039ZM321.167 303.228L321.514 303.859L321.167 303.228ZM316.118 306.749L316.602 307.282L316.603 307.281L316.118 306.749ZM312.132 311.393L312.224 312.108L312.555 312.065L312.736 311.786L312.132 311.393ZM311.906 311.422L311.186 311.405L311.166 312.245L311.999 312.137L311.906 311.422ZM313.153 303.347L313.84 303.566L313.843 303.557L313.153 303.347ZM316.326 296.858L315.746 296.431L315.746 296.432L316.326 296.858ZM321.524 291.827L321.113 291.235L321.113 291.235L321.524 291.827ZM328.422 288.411L328.653 289.094L328.661 289.091L328.422 288.411ZM337.379 284.958L337.664 285.62L337.676 285.614L337.379 284.958ZM343.855 281.826L343.527 281.185L343.517 281.19L343.855 281.826ZM348.977 278.87L349.379 279.467L350.019 279.037L349.546 278.428L348.977 278.87ZM342.094 270.012L342.663 269.57L342.258 269.048L341.703 269.406L342.094 270.012ZM336.972 272.968L337.294 273.613L337.3 273.609L337.307 273.606L336.972 272.968ZM331.031 275.801L331.313 276.464L331.323 276.46L331.332 276.456L331.031 275.801ZM315.378 324.048L314.685 323.852L314.681 323.864L315.378 324.048ZM318.173 318.181L318.755 318.606L318.173 318.181ZM322.683 314.042L323.056 314.659L323.067 314.652L322.683 314.042ZM334.753 312.48L334.528 313.164L334.544 313.17L334.56 313.174L334.753 312.48ZM340.283 315.32L340.737 314.761L340.283 315.32ZM344.369 320.297L343.738 320.644L343.745 320.658L343.753 320.671L344.369 320.297ZM346.109 333.72L345.416 333.524L345.412 333.536L346.109 333.72ZM343.412 339.46L343.994 339.885L343.412 339.46ZM338.804 343.726L339.176 344.343L339.187 344.336L338.804 343.726ZM326.734 345.288L326.508 345.972L326.524 345.977L326.541 345.982L326.734 345.288ZM321.302 342.321L320.848 342.88L321.302 342.321ZM317.118 337.472L316.487 337.819L316.495 337.833L316.503 337.846L317.118 337.472ZM322.937 278.084C319.257 279.264 315.856 281.073 312.735 283.508L313.622 284.644C316.612 282.311 319.863 280.583 323.378 279.456L322.937 278.084ZM312.73 283.512C309.664 285.954 307.097 289.11 305.024 292.965L306.293 293.648C308.286 289.943 310.732 286.945 313.627 284.639L312.73 283.512ZM305.027 292.959C302.934 296.755 301.503 301.305 300.717 306.593L302.143 306.805C302.909 301.647 304.296 297.269 306.289 293.655L305.027 292.959ZM300.718 306.591C299.92 311.822 299.97 317.851 300.853 324.666L302.282 324.481C301.411 317.761 301.37 311.873 302.142 306.808L300.718 306.591ZM300.853 324.666C301.611 330.514 303.006 335.61 305.048 339.944L306.351 339.33C304.386 335.16 303.026 330.215 302.282 324.481L300.853 324.666ZM305.053 339.954C307.163 344.259 309.687 347.799 312.634 350.557L313.618 349.505C310.822 346.888 308.395 343.499 306.347 339.32L305.053 339.954ZM312.648 350.57C315.66 353.238 319.051 355.157 322.815 356.319L323.24 354.943C319.677 353.842 316.466 352.027 313.604 349.492L312.648 350.57ZM322.828 356.323C326.581 357.408 330.463 357.689 334.468 357.171L334.282 355.742C330.466 356.236 326.784 355.967 323.228 354.939L322.828 356.323ZM334.468 357.171C338.248 356.682 341.711 355.488 344.849 353.587L344.102 352.354C341.143 354.148 337.872 355.278 334.282 355.742L334.468 357.171ZM344.855 353.583C348.04 351.607 350.742 349.182 352.957 346.308L351.815 345.428C349.71 348.16 347.138 350.47 344.095 352.358L344.855 353.583ZM352.957 346.308C355.174 343.431 356.794 340.201 357.819 336.622L356.433 336.225C355.458 339.634 353.918 342.7 351.815 345.428L352.957 346.308ZM357.82 336.616C358.837 332.95 359.089 329.151 358.58 325.225L357.151 325.41C357.636 329.154 357.395 332.759 356.432 336.231L357.82 336.616ZM358.58 325.225C358.071 321.298 356.863 317.724 354.952 314.51L353.714 315.247C355.518 318.281 356.666 321.665 357.151 325.41L358.58 325.225ZM354.955 314.515C353.046 311.244 350.69 308.49 347.888 306.261L346.991 307.388C349.645 309.499 351.886 312.115 353.711 315.242L354.955 314.515ZM347.888 306.261C345.089 304.034 341.972 302.396 338.542 301.35L338.122 302.728C341.379 303.722 344.334 305.274 346.991 307.388L347.888 306.261ZM338.562 301.356C335.181 300.217 331.74 299.872 328.245 300.324L328.431 301.753C331.705 301.329 334.926 301.651 338.102 302.722L338.562 301.356ZM328.245 300.324C325.393 300.693 322.912 301.445 320.819 302.597L321.514 303.859C323.418 302.812 325.718 302.104 328.431 301.753L328.245 300.324ZM320.819 302.597C318.782 303.718 317.05 304.923 315.632 306.216L316.603 307.281C317.92 306.079 319.554 304.937 321.514 303.859L320.819 302.597ZM315.634 306.215C314.017 307.681 312.647 309.276 311.527 311.001L312.736 311.786C313.784 310.172 315.071 308.67 316.602 307.282L315.634 306.215ZM312.039 310.679L311.814 310.708L311.999 312.137L312.224 312.108L312.039 310.679ZM312.626 311.44C312.696 308.504 313.104 305.882 313.84 303.566L312.467 303.129C311.682 305.597 311.258 308.358 311.186 311.405L312.626 311.44ZM313.843 303.557C314.572 301.158 315.596 299.07 316.907 297.284L315.746 296.432C314.327 298.363 313.236 300.601 312.464 303.137L313.843 303.557ZM316.907 297.285C318.289 295.407 319.963 293.785 321.934 292.419L321.113 291.235C319.015 292.689 317.225 294.422 315.746 296.431L316.907 297.285ZM321.934 292.419C323.909 291.051 326.147 289.941 328.653 289.094L328.191 287.729C325.569 288.615 323.208 289.783 321.113 291.235L321.934 292.419ZM328.661 289.091C332.109 287.878 335.111 286.721 337.664 285.62L337.094 284.297C334.578 285.381 331.608 286.526 328.182 287.732L328.661 289.091ZM337.676 285.614C340.284 284.433 342.458 283.383 344.192 282.463L343.517 281.19C341.818 282.091 339.674 283.128 337.082 284.302L337.676 285.614ZM344.182 282.468C346.209 281.434 347.942 280.434 349.379 279.467L348.575 278.272C347.199 279.198 345.518 280.169 343.527 281.185L344.182 282.468ZM349.546 278.428L342.663 269.57L341.525 270.453L348.408 279.312L349.546 278.428ZM341.703 269.406C340.243 270.349 338.555 271.323 336.637 272.33L337.307 273.606C339.255 272.584 340.981 271.587 342.485 270.617L341.703 269.406ZM336.65 272.324C335.007 273.145 333.034 274.086 330.729 275.147L331.332 276.456C333.646 275.39 335.633 274.442 337.294 273.613L336.65 272.324ZM330.748 275.139C328.45 276.118 325.843 277.101 322.927 278.088L323.388 279.452C326.332 278.457 328.974 277.461 331.313 276.464L330.748 275.139ZM315.714 330.772C315.413 328.449 315.537 326.271 316.075 324.232L314.681 323.864C314.091 326.1 313.963 328.467 314.286 330.956L315.714 330.772ZM316.071 324.245C316.68 322.096 317.576 320.219 318.755 318.606L317.591 317.756C316.302 319.521 315.335 321.556 314.685 323.852L316.071 324.245ZM318.755 318.606C319.933 316.994 321.365 315.679 323.056 314.659L322.311 313.425C320.455 314.546 318.881 315.991 317.591 317.756L318.755 318.606ZM323.067 314.652C324.819 313.551 326.692 312.874 328.692 312.615L328.507 311.186C326.295 311.472 324.224 312.223 322.3 313.432L323.067 314.652ZM328.692 312.615C330.691 312.356 332.634 312.539 334.528 313.164L334.979 311.796C332.878 311.103 330.718 310.9 328.507 311.186L328.692 312.615ZM334.56 313.174C336.53 313.723 338.283 314.624 339.829 315.879L340.737 314.761C339.034 313.378 337.102 312.386 334.946 311.786L334.56 313.174ZM339.829 315.879C341.374 317.135 342.678 318.719 343.738 320.644L345 319.95C343.859 317.877 342.439 316.144 340.737 314.761L339.829 315.879ZM343.753 320.671C344.862 322.492 345.571 324.554 345.871 326.869L347.3 326.684C346.976 324.186 346.206 321.929 344.984 319.922L343.753 320.671ZM345.871 326.869C346.171 329.184 346.017 331.4 345.416 333.524L346.802 333.917C347.459 331.596 347.623 329.183 347.3 326.684L345.871 326.869ZM345.412 333.536C344.87 335.592 344.008 337.422 342.83 339.035L343.994 339.885C345.284 338.119 346.22 336.123 346.805 333.904L345.412 333.536ZM342.83 339.035C341.652 340.647 340.184 342.007 338.42 343.116L339.187 344.336C341.1 343.134 342.704 341.65 343.994 339.885L342.83 339.035ZM338.431 343.109C336.746 344.127 334.902 344.766 332.893 345.026L333.079 346.455C335.281 346.17 337.316 345.466 339.176 344.343L338.431 343.109ZM332.893 345.026C330.884 345.286 328.897 345.143 326.927 344.594L326.541 345.982C328.695 346.582 330.876 346.74 333.079 346.455L332.893 345.026ZM326.959 344.604C325.045 343.972 323.312 343.025 321.756 341.762L320.848 342.88C322.54 344.254 324.428 345.286 326.508 345.972L326.959 344.604ZM321.756 341.762C320.201 340.498 318.859 338.945 317.733 337.097L316.503 337.846C317.708 339.825 319.156 341.505 320.848 342.88L321.756 341.762ZM317.749 337.124C316.695 335.21 316.015 333.094 315.714 330.772L314.286 330.956C314.608 333.447 315.341 335.736 316.487 337.819L317.749 337.124Z" fill="black"/>
<path d="M401.469 360.322L400.843 359.966L400.839 359.973L400.834 359.981L401.469 360.322ZM405.284 345.31L406.004 345.353L406.004 345.351L405.284 345.31ZM409.022 280.055L409.742 280.096L409.802 279.042L408.798 279.37L409.022 280.055ZM397.131 283.948L396.907 283.263L396.435 283.418L396.412 283.914L397.131 283.948ZM395.158 326.842L395.382 327.527L395.855 327.372L395.878 326.875L395.158 326.842ZM394.942 326.913L394.381 327.365L394.694 327.752L395.166 327.597L394.942 326.913ZM367.944 293.502L368.505 293.05L368.192 292.663L367.72 292.818L367.944 293.502ZM356.053 297.395L355.829 296.71L354.812 297.043L355.504 297.86L356.053 297.395ZM394.146 342.373L394.865 342.419L394.884 342.13L394.696 341.908L394.146 342.373ZM393.757 348.485L393.038 348.439L393.757 348.485ZM391.747 354.768L391.151 354.363L391.141 354.378L391.131 354.394L391.747 354.768ZM384.171 359.043L384.135 358.324L384.104 358.325L384.073 358.33L384.171 359.043ZM381.976 359.283L381.903 360L381.965 360.006L382.027 360.002L381.976 359.283ZM379.854 359.02L379.96 358.308L378.806 358.137L379.17 359.244L379.854 359.02ZM383.222 369.288L382.537 369.512L382.683 369.957L383.149 370.004L383.222 369.288ZM385.775 369.409L385.772 370.13L385.817 370.13L385.861 370.125L385.775 369.409ZM388.403 369.028L388.327 368.312L388.306 368.314L388.286 368.317L388.403 369.028ZM392.085 368.94C396.578 367.469 399.931 364.705 402.104 360.663L400.834 359.981C398.844 363.685 395.791 366.21 391.636 367.571L392.085 368.94ZM402.095 360.679C404.345 356.727 405.633 351.605 406.004 345.353L404.565 345.267C404.203 351.383 402.948 356.268 400.843 359.966L402.095 360.679ZM406.004 345.351L409.742 280.096L408.303 280.013L404.565 345.268L406.004 345.351ZM408.798 279.37L396.907 283.263L397.356 284.632L409.247 280.739L408.798 279.37ZM396.412 283.914L394.438 326.809L395.878 326.875L397.851 283.981L396.412 283.914ZM394.934 326.158L394.717 326.228L395.166 327.597L395.382 327.527L394.934 326.158ZM395.502 326.46L368.505 293.05L367.384 293.955L394.381 327.365L395.502 326.46ZM367.72 292.818L355.829 296.71L356.278 298.079L368.169 294.187L367.72 292.818ZM355.504 297.86L393.597 342.838L394.696 341.908L356.603 296.929L355.504 297.86ZM393.427 342.327L393.038 348.439L394.476 348.531L394.865 342.419L393.427 342.327ZM393.038 348.439C392.889 350.776 392.251 352.742 391.151 354.363L392.343 355.173C393.61 353.306 394.313 351.083 394.476 348.531L393.038 348.439ZM391.131 354.394C390.14 356.027 388.661 357.175 386.648 357.834L387.096 359.203C389.407 358.446 391.178 357.094 392.363 355.142L391.131 354.394ZM386.648 357.834C385.763 358.123 384.926 358.284 384.135 358.324L384.208 359.763C385.144 359.716 386.107 359.527 387.096 359.203L386.648 357.834ZM384.073 358.33C383.243 358.444 382.528 358.522 381.924 358.565L382.027 360.002C382.671 359.956 383.419 359.874 384.27 359.757L384.073 358.33ZM382.049 358.567C381.315 358.492 380.619 358.405 379.96 358.308L379.749 359.733C380.432 359.834 381.15 359.923 381.903 360L382.049 358.567ZM379.17 359.244L382.537 369.512L383.906 369.064L380.539 358.796L379.17 359.244ZM383.149 370.004C383.92 370.083 384.795 370.124 385.772 370.13L385.779 368.689C384.837 368.684 384.009 368.644 383.295 368.571L383.149 370.004ZM385.861 370.125C386.642 370.031 387.529 369.902 388.521 369.738L388.286 368.317C387.309 368.479 386.444 368.604 385.689 368.694L385.861 370.125ZM388.479 369.744C389.618 369.624 390.821 369.354 392.085 368.94L391.636 367.571C390.451 367.959 389.348 368.204 388.327 368.312L388.479 369.744Z" fill="black"/>
<path d="M431.135 330.193L430.503 330.538L430.743 330.976L431.237 330.905L431.135 330.193ZM433.104 329.763L432.922 329.066L432.913 329.069L432.904 329.071L433.104 329.763ZM435.164 329.025L434.937 328.342L434.906 328.352L434.877 328.365L435.164 329.025ZM443.434 322.815L444.027 323.225L444.032 323.217L444.037 323.209L443.434 322.815ZM445.616 314.49L446.337 314.499L445.616 314.49ZM443.159 301.961L442.473 302.182L442.476 302.192L443.159 301.961ZM432.538 279.507L432.191 278.875L431.559 279.221L431.906 279.853L432.538 279.507ZM449.501 270.225L450.133 269.88L449.787 269.248L449.155 269.594L449.501 270.225ZM470.55 308.627L469.918 308.973L470.264 309.604L470.896 309.259L470.55 308.627ZM480.528 303.167L480.875 303.799L481.507 303.453L481.16 302.821L480.528 303.167ZM454.286 255.29L454.918 254.944L454.571 254.313L453.94 254.658L454.286 255.29ZM417.365 275.491L417.019 274.859L416.387 275.205L416.733 275.837L417.365 275.491ZM431.428 302.804L430.754 303.057L430.756 303.064L430.759 303.07L431.428 302.804ZM433.787 311.367L433.069 311.427L433.07 311.44L433.787 311.367ZM432.907 316.387L432.305 315.99L432.3 315.998L432.295 316.006L432.907 316.387ZM428.455 319.86L428.217 319.18L428.455 319.86ZM427.248 320.261L427.032 319.574L427.021 319.577L427.01 319.581L427.248 320.261ZM425.941 320.717L425.703 320.037L424.9 320.317L425.309 321.063L425.941 320.717ZM431.237 330.905C431.914 330.809 432.604 330.658 433.305 330.455L432.904 329.071C432.262 329.257 431.638 329.393 431.032 329.48L431.237 330.905ZM433.287 330.46C433.938 330.29 434.66 330.029 435.452 329.685L434.877 328.365C434.132 328.688 433.481 328.92 432.922 329.066L433.287 330.46ZM435.392 329.708C436.244 329.425 437.118 329.037 438.015 328.546L437.322 327.282C436.489 327.738 435.694 328.09 434.937 328.342L435.392 329.708ZM438.015 328.546C440.5 327.186 442.509 325.413 444.027 323.225L442.842 322.404C441.461 324.395 439.626 326.022 437.322 327.282L438.015 328.546ZM444.037 323.209C445.545 320.908 446.293 317.988 446.337 314.499L444.896 314.481C444.855 317.78 444.148 320.41 442.831 322.42L444.037 323.209ZM446.337 314.499C446.38 310.992 445.535 306.729 443.841 301.73L442.476 302.192C444.143 307.11 444.936 311.2 444.896 314.481L446.337 314.499ZM443.845 301.74C442.212 296.686 439.469 290.653 435.63 283.65L434.366 284.341C438.181 291.302 440.879 297.246 442.473 302.182L443.845 301.74ZM435.63 283.65L433.17 279.161L431.906 279.853L434.366 284.341L435.63 283.65ZM432.884 280.139L449.847 270.857L449.155 269.594L432.191 278.875L432.884 280.139ZM448.869 270.571L469.918 308.973L471.182 308.281L450.133 269.88L448.869 270.571ZM470.896 309.259L480.875 303.799L480.182 302.535L470.204 307.995L470.896 309.259ZM481.16 302.821L454.918 254.944L453.654 255.636L479.896 303.513L481.16 302.821ZM453.94 254.658L417.019 274.859L417.712 276.123L454.632 255.922L453.94 254.658ZM416.733 275.837L424.387 289.801L425.651 289.109L417.997 275.145L416.733 275.837ZM424.387 289.801C427.332 295.173 429.45 299.589 430.754 303.057L432.103 302.551C430.765 298.992 428.611 294.509 425.651 289.109L424.387 289.801ZM430.759 303.07C432.134 306.519 432.892 309.297 433.069 311.427L434.505 311.308C434.311 308.973 433.496 306.042 432.098 302.538L430.759 303.07ZM433.07 311.44C433.277 313.479 432.982 314.963 432.305 315.99L433.508 316.783C434.437 315.376 434.729 313.514 434.504 311.295L433.07 311.44ZM432.295 316.006C431.633 317.067 430.665 317.959 429.36 318.673L430.053 319.936C431.543 319.121 432.708 318.068 433.518 316.768L432.295 316.006ZM429.36 318.673C428.997 318.872 428.616 319.041 428.217 319.18L428.692 320.54C429.165 320.375 429.619 320.174 430.053 319.936L429.36 318.673ZM428.217 319.18C427.787 319.33 427.392 319.461 427.032 319.574L427.463 320.948C427.841 320.83 428.251 320.694 428.692 320.54L428.217 319.18ZM427.01 319.581C426.574 319.733 426.139 319.885 425.703 320.037L426.179 321.397C426.614 321.245 427.05 321.093 427.485 320.941L427.01 319.581ZM425.309 321.063L430.503 330.538L431.767 329.847L426.573 320.371L425.309 321.063Z" fill="black"/>
<path d="M490.535 297.413L489.98 297.872L490.299 298.256L490.771 298.093L490.535 297.413ZM492.386 296.616L492.074 295.967L492.066 295.971L492.057 295.975L492.386 296.616ZM494.268 295.499L493.914 294.872L493.886 294.887L493.86 294.905L494.268 295.499ZM501.204 287.827L501.863 288.117L501.867 288.109L501.871 288.1L501.204 287.827ZM501.76 279.24L502.469 279.112L501.76 279.24ZM496.96 267.409L496.329 267.757L496.334 267.766L496.96 267.409ZM482.254 247.391L481.794 246.837L481.24 247.297L481.7 247.851L482.254 247.391ZM497.14 235.049L497.694 234.589L497.234 234.035L496.679 234.495L497.14 235.049ZM525.121 268.735L524.566 269.195L525.027 269.749L525.581 269.289L525.121 268.735ZM533.877 261.475L534.337 262.029L534.892 261.569L534.432 261.015L533.877 261.475ZM498.991 219.476L499.546 219.017L499.086 218.462L498.531 218.922L498.991 219.476ZM466.594 246.339L466.134 245.785L465.579 246.245L466.039 246.799L466.594 246.339ZM485.604 270.471L484.99 270.848L484.994 270.854L484.998 270.86L485.604 270.471ZM489.552 278.428L488.858 278.623L488.862 278.635L489.552 278.428ZM489.644 283.523L488.977 283.249L488.974 283.257L488.971 283.266L489.644 283.523ZM485.935 287.781L485.572 287.158L485.935 287.781ZM484.826 288.404L484.484 287.771L484.473 287.776L484.463 287.782L484.826 288.404ZM483.63 289.1L483.267 288.478L482.532 288.906L483.075 289.56L483.63 289.1ZM490.771 298.093C491.417 297.869 492.066 297.59 492.715 297.257L492.057 295.975C491.463 296.28 490.876 296.532 490.298 296.732L490.771 298.093ZM492.698 297.265C493.305 296.974 493.965 296.581 494.676 296.092L493.86 294.905C493.19 295.365 492.596 295.717 492.074 295.967L492.698 297.265ZM494.622 296.126C495.404 295.686 496.188 295.138 496.975 294.486L496.055 293.377C495.324 293.983 494.61 294.48 493.914 294.872L494.622 296.126ZM496.975 294.486C499.156 292.677 500.791 290.554 501.863 288.117L500.544 287.537C499.568 289.755 498.076 291.701 496.055 293.377L496.975 294.486ZM501.871 288.1C502.913 285.553 503.091 282.544 502.469 279.112L501.05 279.368C501.639 282.615 501.447 285.331 500.537 287.555L501.871 288.1ZM502.469 279.112C501.843 275.66 500.201 271.637 497.586 267.053L496.334 267.766C498.907 272.276 500.465 276.14 501.05 279.368L502.469 279.112ZM497.591 267.062C495.025 262.411 491.183 257.012 486.079 250.869L484.97 251.788C490.042 257.894 493.823 263.215 496.329 267.757L497.591 267.062ZM486.079 250.869L482.809 246.931L481.7 247.851L484.97 251.788L486.079 250.869ZM482.715 247.945L497.6 235.603L496.679 234.495L481.794 246.837L482.715 247.945ZM496.585 235.509L524.566 269.195L525.675 268.275L497.694 234.589L496.585 235.509ZM525.581 269.289L534.337 262.029L533.417 260.921L524.661 268.181L525.581 269.289ZM534.432 261.015L499.546 219.017L498.437 219.936L533.322 261.935L534.432 261.015ZM498.531 218.922L466.134 245.785L467.054 246.893L499.452 220.031L498.531 218.922ZM466.039 246.799L476.214 259.048L477.323 258.129L467.148 245.879L466.039 246.799ZM476.214 259.048C480.129 263.761 483.05 267.693 484.99 270.848L486.218 270.095C484.227 266.856 481.258 262.866 477.323 258.129L476.214 259.048ZM484.998 270.86C487.005 273.983 488.278 276.567 488.858 278.623L490.245 278.233C489.61 275.978 488.251 273.256 486.211 270.082L484.998 270.86ZM488.862 278.635C489.453 280.598 489.447 282.111 488.977 283.249L490.31 283.798C490.953 282.239 490.886 280.356 490.242 278.22L488.862 278.635ZM488.971 283.266C488.523 284.434 487.742 285.494 486.598 286.443L487.518 287.551C488.826 286.467 489.769 285.211 490.317 283.781L488.971 283.266ZM486.598 286.443C486.278 286.707 485.937 286.946 485.572 287.158L486.298 288.403C486.73 288.151 487.137 287.867 487.518 287.551L486.598 286.443ZM485.572 287.158C485.179 287.387 484.816 287.591 484.484 287.771L485.169 289.038C485.517 288.85 485.893 288.638 486.298 288.403L485.572 287.158ZM484.463 287.782C484.065 288.014 483.666 288.246 483.267 288.478L483.993 289.723C484.392 289.491 484.79 289.259 485.189 289.026L484.463 287.782ZM483.075 289.56L489.98 297.872L491.089 296.953L484.185 288.641L483.075 289.56Z" fill="black"/>
<path d="M555.577 238.458L556.137 238.911L556.359 238.638L556.279 238.296L555.577 238.458ZM545.258 193.783L544.699 193.33L544.477 193.603L544.556 193.946L545.258 193.783ZM545.402 193.607L545.856 193.048L545.296 192.594L544.842 193.153L545.402 193.607ZM573.502 216.382L573.048 216.941L573.607 217.395L574.061 216.836L573.502 216.382ZM580.671 207.552L581.231 208.006L581.685 207.446L581.126 206.993L580.671 207.552ZM538.256 173.174L538.71 172.615L538.151 172.161L537.697 172.721L538.256 173.174ZM531.803 181.121L531.244 180.668L531.022 180.941L531.101 181.283L531.803 181.121ZM542.122 225.796L542.682 226.249L542.904 225.976L542.825 225.634L542.122 225.796ZM541.979 225.972L541.525 226.531L542.085 226.985L542.539 226.426L541.979 225.972ZM513.879 203.197L514.333 202.638L513.773 202.184L513.319 202.743L513.879 203.197ZM506.709 212.027L506.15 211.574L505.696 212.133L506.255 212.586L506.709 212.027ZM549.124 246.405L548.67 246.964L549.23 247.418L549.684 246.859L549.124 246.405ZM556.279 238.296L545.96 193.621L544.556 193.946L554.875 238.62L556.279 238.296ZM545.818 194.237L545.961 194.06L544.842 193.153L544.699 193.33L545.818 194.237ZM544.948 194.166L573.048 216.941L573.956 215.823L545.856 193.048L544.948 194.166ZM574.061 216.836L581.231 208.006L580.112 207.098L572.942 215.929L574.061 216.836ZM581.126 206.993L538.71 172.615L537.802 173.733L580.217 208.111L581.126 206.993ZM537.697 172.721L531.244 180.668L532.363 181.575L538.816 173.628L537.697 172.721ZM531.101 181.283L541.42 225.958L542.825 225.634L532.506 180.959L531.101 181.283ZM541.563 225.342L541.419 225.519L542.539 226.426L542.682 226.249L541.563 225.342ZM542.433 225.413L514.333 202.638L513.425 203.756L541.525 226.531L542.433 225.413ZM513.319 202.743L506.15 211.574L507.269 212.481L514.439 203.65L513.319 202.743ZM506.255 212.586L548.67 246.964L549.579 245.846L507.163 211.468L506.255 212.586ZM549.684 246.859L556.137 238.911L555.018 238.004L548.565 245.951L549.684 246.859Z" fill="black"/>
<path d="M592.151 190.424L591.815 191.061L592.452 191.396L592.788 190.759L592.151 190.424ZM597.453 180.36L598.09 180.696L598.426 180.058L597.788 179.723L597.453 180.36ZM577.318 169.771L576.681 169.436L576.345 170.073L576.983 170.409L577.318 169.771ZM589.778 146.123L590.114 145.486L589.476 145.15L589.14 145.788L589.778 146.123ZM609.912 156.712L609.576 157.349L610.214 157.685L610.55 157.047L609.912 156.712ZM615.214 146.649L615.852 146.984L616.188 146.347L615.55 146.011L615.214 146.649ZM566.892 121.235L567.228 120.598L566.59 120.262L566.255 120.9L566.892 121.235ZM561.59 131.298L560.953 130.963L560.617 131.6L561.254 131.936L561.59 131.298ZM580.718 141.358L581.355 141.693L581.691 141.056L581.053 140.72L580.718 141.358ZM568.258 165.006L567.922 165.644L568.56 165.979L568.896 165.342L568.258 165.006ZM549.131 154.947L549.466 154.309L548.829 153.974L548.493 154.611L549.131 154.947ZM543.829 165.01L543.191 164.675L542.855 165.312L543.493 165.647L543.829 165.01ZM592.788 190.759L598.09 180.696L596.815 180.025L591.513 190.088L592.788 190.759ZM597.788 179.723L577.654 169.134L576.983 170.409L597.117 180.998L597.788 179.723ZM577.956 170.107L590.416 146.458L589.14 145.788L576.681 169.436L577.956 170.107ZM589.442 146.76L609.576 157.349L610.248 156.075L590.114 145.486L589.442 146.76ZM610.55 157.047L615.852 146.984L614.577 146.313L609.275 156.377L610.55 157.047ZM615.55 146.011L567.228 120.598L566.556 121.872L614.878 147.286L615.55 146.011ZM566.255 120.9L560.953 130.963L562.228 131.633L567.53 121.57L566.255 120.9ZM561.254 131.936L580.382 141.995L581.053 140.72L561.926 130.661L561.254 131.936ZM580.08 141.022L567.62 164.671L568.896 165.342L581.355 141.693L580.08 141.022ZM568.594 164.369L549.466 154.309L548.795 155.584L567.922 165.644L568.594 164.369ZM548.493 154.611L543.191 164.675L544.466 165.345L549.768 155.282L548.493 154.611ZM543.493 165.647L591.815 191.061L592.486 189.786L544.164 164.373L543.493 165.647Z" fill="black"/>
<path d="M622.959 126.646L622.738 127.332L623.424 127.552L623.645 126.866L622.959 126.646ZM626.436 115.816L627.122 116.036L627.342 115.35L626.656 115.13L626.436 115.816ZM584.734 102.45L584.048 102.231L583.827 102.916L584.513 103.136L584.734 102.45ZM593.079 76.4586L593.765 76.6785L593.985 75.9926L593.299 75.7727L593.079 76.4586ZM582.789 73.1606L583.009 72.4747L582.323 72.2548L582.103 72.9407L582.789 73.1606ZM570.966 109.982L570.28 109.763L570.06 110.448L570.746 110.668L570.966 109.982ZM623.645 126.866L627.122 116.036L625.75 115.596L622.273 126.426L623.645 126.866ZM626.656 115.13L584.954 101.765L584.513 103.136L626.216 116.502L626.656 115.13ZM585.42 102.67L593.765 76.6785L592.393 76.2387L584.048 102.231L585.42 102.67ZM593.299 75.7727L583.009 72.4747L582.568 73.8465L592.859 77.1445L593.299 75.7727ZM582.103 72.9407L570.28 109.763L571.652 110.202L583.475 73.3805L582.103 72.9407ZM570.746 110.668L622.738 127.332L623.179 125.96L571.186 109.297L570.746 110.668Z" fill="black"/>
</g>
</svg>
