<svg width="134" height="28" viewBox="0 0 134 28" fill="none" xmlns="http://www.w3.org/2000/svg">
<g clip-path="url(#clip0_522_236)">
<path d="M44.395 18.098H38.563C39.607 17.145 39.918 15.238 39.899 13.139L39.898 12.914H39.899V10.351H44.395V18.098ZM48.711 18.098H47.003V7.84H37.29V12.914H37.292L37.291 12.919L37.295 13.617C37.303 14.789 37.292 18.078 34.833 18.092L34.348 18.098V23.469H36.957V20.609H46.102V23.469H48.711V20.611V18.098Z" fill="#005FF9"/>
<path fill-rule="evenodd" clip-rule="evenodd" d="M56.306 7.512C58.0859 7.5128 59.7926 8.22021 61.0512 9.47878C62.3098 10.7373 63.0172 12.4441 63.018 14.224C63.0175 16.0041 62.3102 17.7111 61.0516 18.9699C59.793 20.2287 58.0861 20.9362 56.306 20.937C54.526 20.9359 52.8193 20.2283 51.5607 18.9696C50.3022 17.7108 49.5948 16.004 49.594 14.224C49.5951 12.4442 50.3025 10.7376 51.5611 9.47907C52.8196 8.22056 54.5262 7.51306 56.306 7.512ZM56.306 10.12C57.3945 10.1203 58.4383 10.5527 59.208 11.3223C59.9778 12.0918 60.4105 13.1355 60.411 14.224C60.4107 15.3126 59.9782 16.3566 59.2084 17.1264C58.4386 17.8962 57.3946 18.3287 56.306 18.329C55.2175 18.3285 54.1738 17.8958 53.4043 17.126C52.6347 16.3563 52.2023 15.3125 52.202 14.224C52.2025 13.1357 52.6351 12.0922 53.4046 11.3226C54.1741 10.5531 55.2177 10.1205 56.306 10.12ZM103.246 7.512C105.026 7.5128 106.733 8.22021 107.991 9.47878C109.25 10.7373 109.957 12.4441 109.958 14.224C109.957 16.0041 109.25 17.7111 107.992 18.9699C106.733 20.2287 105.026 20.9362 103.246 20.937C101.466 20.9359 99.7593 20.2283 98.5007 18.9696C97.2422 17.7108 96.5348 16.004 96.534 14.224C96.535 12.4442 97.2425 10.7376 98.5011 9.47907C99.7596 8.22056 101.466 7.51306 103.246 7.512ZM103.246 10.12C104.334 10.1203 105.378 10.5527 106.148 11.3223C106.918 12.0918 107.35 13.1355 107.351 14.224C107.351 15.3126 106.918 16.3566 106.148 17.1264C105.379 17.8962 104.335 18.3287 103.246 18.329C102.158 18.3285 101.114 17.8958 100.344 17.126C99.5747 16.3563 99.1423 15.3125 99.142 14.224C99.1425 13.1357 99.5751 12.0922 100.345 11.3226C101.114 10.5531 102.158 10.1205 103.246 10.12Z" fill="#005FF9"/>
<path d="M72.015 18.358C71.2402 18.3577 70.4811 18.1398 69.8241 17.7291C69.1671 17.3184 68.6387 16.7314 68.299 16.035C68.299 16.035 68.143 15.725 68.062 15.434C67.8074 14.6021 67.8217 13.7111 68.1029 12.8878C68.3841 12.0645 68.9178 11.3509 69.6282 10.8486C70.3385 10.3463 71.1892 10.0809 72.0592 10.0902C72.9291 10.0995 73.774 10.3831 74.4734 10.9004C75.1728 11.4178 75.6912 12.1426 75.9548 12.9718C76.2183 13.8009 76.2135 14.692 75.9411 15.5183C75.6688 16.3445 75.1427 17.0638 74.4377 17.5736C73.7328 18.0835 72.885 18.358 72.015 18.358ZM67.592 9.927C67.593 8.84 68.224 7.212 69.293 6.221C70.577 5.03 71.949 4.752 73.838 4.339C74.879 4.112 76.155 3.77 77.231 3.233L76.245 0.820999C75.462 1.14 74.541 1.342 73.565 1.555C71.451 2.017 69.054 2.541 67.334 4.502C65.918 6.116 65.187 8.493 65.051 11.194C64.938 13.427 65.198 15.618 65.954 17.107C66.4991 18.2529 67.3578 19.2209 68.4305 19.8988C69.5032 20.5766 70.7461 20.9366 72.015 20.937C73.7951 20.9362 75.502 20.2287 76.7606 18.9699C78.0192 17.7111 78.7265 16.0041 78.727 14.224C78.727 10.52 75.954 7.512 72.25 7.512C69.731 7.512 68.214 8.878 67.592 9.927Z" fill="#005FF9"/>
<path fill-rule="evenodd" clip-rule="evenodd" d="M81.075 25.109L83.684 25.105V19.212C84.619 20.271 86.266 20.937 87.815 20.937C89.595 20.9359 91.3018 20.2283 92.5603 18.9696C93.8188 17.7108 94.5262 16.004 94.527 14.224C94.526 12.4442 93.8185 10.7376 92.5599 9.47907C91.3014 8.22056 89.5948 7.51306 87.815 7.512C86.266 7.512 84.706 8.096 83.684 9.127V7.84H81.075V25.109ZM87.73 10.195C85.445 10.195 83.648 11.829 83.648 14.224C83.648 16.619 85.445 18.268 87.73 18.268C90.014 18.268 91.75 16.509 91.75 14.224C91.75 11.94 90.014 10.195 87.73 10.195Z" fill="#005FF9"/>
<path d="M18.211 14C18.211 16.322 16.322 18.211 14 18.211C11.678 18.211 9.789 16.322 9.789 14C9.789 11.678 11.678 9.789 14 9.789C16.322 9.789 18.211 11.678 18.211 14ZM14 0C6.28 0 0 6.28 0 14C0 21.72 6.28 28 14 28C16.8144 28.0042 19.5639 27.1552 21.886 25.565L21.926 25.537L20.04 23.345L20.008 23.365C18.2168 24.5189 16.1307 25.1318 14 25.13C7.863 25.13 2.87 20.137 2.87 14C2.87 7.863 7.863 2.87 14 2.87C20.137 2.87 25.13 7.863 25.13 14C25.13 14.795 25.041 15.6 24.868 16.392C24.516 17.837 23.504 18.279 22.745 18.221C21.981 18.159 21.087 17.615 21.081 16.283V14C21.081 10.095 17.905 6.919 14 6.919C10.095 6.919 6.919 10.095 6.919 14C6.919 17.905 10.095 21.081 14 21.081C14.9332 21.0835 15.8575 20.8999 16.7189 20.5411C17.5803 20.1822 18.3616 19.6553 19.017 18.991C19.3974 19.5875 19.9116 20.087 20.5188 20.45C21.126 20.813 21.8095 21.0294 22.515 21.082C23.6668 21.1709 24.8114 20.8355 25.733 20.139C26.572 19.501 27.199 18.58 27.545 17.473C27.6 17.294 27.702 16.885 27.702 16.882L27.705 16.867C27.909 15.979 28 15.094 28 14C28 6.28 21.72 0 14 0" fill="#FF9E00"/>
<path d="M127.51 17.0912C124.351 17.0912 122.436 14.9016 122.363 11.2616H123.965C124.015 13.9328 125.23 15.0696 126.166 15.2992V11.2616H127.7V13.5688C128.602 13.468 129.542 12.4208 129.856 11.2616H131.362C131.122 12.684 130.097 13.7368 129.374 14.168C130.097 14.5152 131.267 15.4336 131.715 17.0912H130.058C129.71 15.9824 128.848 15.1256 127.7 15.008V17.0912H127.51ZM126.714 21H127.297C130.461 21 132.046 21 133.026 20.02C134 19.0344 134 17.4496 134 14.2968V13.7032C134 10.5448 134 8.9656 133.026 7.98C132.046 7 130.461 7 127.297 7H126.714C123.55 7 121.966 7 120.98 7.98C119.994 8.96 120 10.5504 120 13.7032V14.2968C120 17.4552 120 19.0344 120.98 20.02C121.96 21.0056 123.55 21 126.714 21Z" fill="#AAAEB3"/>
</g>
<defs>
<clipPath id="clip0_522_236">
<rect width="134" height="28" fill="white"/>
</clipPath>
</defs>
</svg>
