<svg width="96" height="32" viewBox="0 0 96 32" fill="none" xmlns="http://www.w3.org/2000/svg">
<path fill-rule="evenodd" clip-rule="evenodd" d="M82.7328 23.4785H79.7107V22.3741C78.5432 23.3884 77.0177 23.9926 75.2232 23.9926C70.9315 23.9926 67.4474 20.5371 67.4474 16.2809C67.4474 12.0247 70.9315 8.56929 75.2232 8.56929C77.0177 8.56929 78.5432 9.17347 79.7107 10.1878V9.08334H82.7328V23.4785ZM44.3703 23.4785H41.3484V9.08344H44.3703V9.88281C45.0415 9.25705 46.3045 8.57141 47.8715 8.56929C49.8839 8.56929 51.6861 9.47824 52.8835 10.9036C54.0811 9.47824 55.8832 8.56929 57.8957 8.56929C61.4925 8.56929 64.4188 11.4714 64.4188 15.0386V23.4785H61.3967V15.0386C61.3967 13.1241 59.8261 11.5664 57.8957 11.5664C55.9651 11.5664 54.3946 13.1241 54.3946 15.0386V23.4785H51.3726V15.0386C51.3726 13.1241 49.8019 11.5664 47.8715 11.5664C45.941 11.5664 44.3703 13.1241 44.3703 15.0386V23.4785ZM86.3439 23.4785H89.3659V9.08347H86.3439V23.4785ZM92.9779 23.4785H95.9999V2.9141H92.9779V23.4785ZM75.2229 11.5262C77.8691 11.5262 79.9543 13.6568 79.9543 16.2811C79.9543 18.9054 77.8691 21.036 75.2229 21.036C72.5768 21.036 70.4284 18.9054 70.4284 16.2811C70.4284 13.6568 72.5768 11.5262 75.2229 11.5262ZM87.8575 2.39984C89.0031 2.39984 89.9331 3.3223 89.9331 4.45838C89.9331 5.59457 89.0031 6.51702 87.8575 6.51702C86.7118 6.51702 85.7818 5.59457 85.7818 4.45838C85.7818 3.3223 86.7118 2.39984 87.8575 2.39984ZM16.1082 0C7.22607 0 0 7.17755 0 15.9999C0 24.8224 7.22607 32 16.1082 32C19.3737 32 22.5215 31.023 25.1816 29.2171L23.0703 26.7791C21.0061 28.098 18.6003 28.8099 16.1082 28.8099C8.99694 28.8099 3.21167 23.0635 3.21167 15.9999C3.21167 8.93643 8.99694 3.19 16.1082 3.19C23.2195 3.19 29.0047 8.93643 29.0047 15.9999C29.0047 16.9301 28.8996 17.855 28.7009 18.7547C28.2875 20.4386 27.1055 20.9594 26.1973 20.8889C25.3018 20.8173 24.2379 20.1831 24.231 18.617V15.9999C24.231 11.5512 20.587 7.93174 16.1082 7.93174C11.6295 7.93174 7.98536 11.5512 7.98536 15.9999C7.98536 20.4489 11.6295 24.0683 16.1082 24.0683C18.378 24.0683 20.4322 23.1375 21.9075 21.6416C22.7763 23.0197 24.2148 23.9311 25.9399 24.0688C26.0838 24.0802 26.2274 24.0859 26.3706 24.0859C27.5394 24.0859 28.6792 23.7067 29.6196 22.9975C30.5903 22.2656 31.2969 21.2253 31.693 19.9668C31.7563 19.7658 31.8724 19.3001 31.8737 19.2939H31.8732C32.1373 18.158 32.2164 17.1099 32.2164 15.9999C32.2164 7.17755 24.9902 0 16.1082 0ZM11.1972 16.0001C11.1972 13.3103 13.4004 11.122 16.1083 11.122C18.8163 11.122 21.0194 13.3103 21.0194 16.0001C21.0194 18.69 18.8163 20.8783 16.1083 20.8783C13.4004 20.8783 11.1972 18.69 11.1972 16.0001Z" fill="#BFC1C7"/>
</svg>
