<svg width="577" height="398" viewBox="0 0 577 398" fill="none" xmlns="http://www.w3.org/2000/svg">
<path d="M18.327 178.152C20.3511 174.291 25.0072 171.28 28.3767 173.496C33.4703 176.844 29.4945 186.527 26.5541 184.703C23.2067 182.627 31.4907 174.852 37.0339 178.701C42.295 182.353 39.9262 192.747 36.1792 190.652C31.0738 187.797 46.0288 177.37 50.4341 188.657" stroke="black" stroke-width="0.782367"/>
<path d="M5.17065 168.344L8.04476 172.269C8.17618 172.448 8.26297 172.658 8.29767 172.879C8.33236 173.101 8.31391 173.327 8.2439 173.54L6.71165 178.187C6.63113 178.432 6.61906 178.694 6.67681 178.945C6.73456 179.196 6.85982 179.426 7.03844 179.608C7.21705 179.79 7.44189 179.917 7.68755 179.975C7.9332 180.034 8.18986 180.02 8.42852 179.937L12.9674 178.354C13.1752 178.281 13.3971 178.261 13.6141 178.296C13.831 178.331 14.0364 178.419 14.2125 178.553L18.0601 181.48C18.2622 181.633 18.5024 181.726 18.7534 181.748C19.0044 181.769 19.2563 181.719 19.4806 181.601C19.705 181.484 19.8928 181.305 20.0231 181.085C20.1533 180.864 20.2207 180.611 20.2176 180.353L20.1484 175.449C20.1449 175.225 20.1948 175.003 20.2937 174.803C20.3926 174.603 20.5376 174.431 20.7161 174.301L24.6271 171.462C24.8327 171.312 24.9934 171.107 25.0909 170.869C25.1885 170.631 25.219 170.37 25.1791 170.116C25.1392 169.861 25.0304 169.623 24.865 169.428C24.6997 169.233 24.4843 169.09 24.2434 169.014L19.6611 167.566C19.4517 167.5 19.2613 167.383 19.1061 167.225C18.9509 167.066 18.8356 166.872 18.7702 166.658L17.3396 161.973C17.2644 161.727 17.1232 161.507 16.9322 161.339C16.7411 161.17 16.5078 161.06 16.2585 161.02C16.0093 160.98 15.7542 161.013 15.5219 161.113C15.2897 161.214 15.0897 161.379 14.9445 161.59L12.1807 165.599C12.0545 165.782 11.8866 165.932 11.6914 166.034C11.4963 166.136 11.2797 166.188 11.0605 166.186L6.26597 166.132C6.01379 166.129 5.76589 166.199 5.55032 166.333C5.33475 166.466 5.16011 166.659 5.04614 166.89C4.93218 167.12 4.88345 167.378 4.90545 167.635C4.92745 167.892 5.01932 168.137 5.17065 168.344Z" fill="#FFEF60"/>
<path d="M16.0726 124.887C16.9954 115.138 17.6106 107.316 17.6107 96.2677C17.6107 92.1791 15.1498 91.2356 13.3042 95.0097C11.4586 98.7837 7.81302 109.559 7.81302 109.559C7.81302 109.559 -1.10816 108.068 -9.72096 98.8655C-18.3338 89.663 -25.7155 89.1978 -24.7927 92.0283C-26.638 90.6889 -28.4836 90.3744 -29.4063 91.0034C-30.329 91.6324 -30.3291 93.205 -30.0213 94.148C-35.8657 99.18 -14.0274 115.22 -15.2578 116.163C-16.4882 117.107 -28.6833 105.624 -30.0215 109.559C-31.3598 113.493 -2.35326 132.644 0.261851 139.152C13.1048 146.903 14.9117 137.153 16.0726 124.887Z" fill="#FFA9A9"/>
<path d="M76.2105 225.342C76.2105 225.342 41.0883 215.764 46.7045 197.13C47.3106 195.128 49.2567 190.932 49.6776 188.889C52.0774 177.254 51.8558 171.064 67.3582 164.586C85.5891 156.962 77.2151 168.974 79.0116 168.655C80.8081 168.337 97.0911 172.946 93.0911 183.061C89.0911 193.176 76.2105 225.342 76.2105 225.342Z" fill="black"/>
<path d="M53.3936 481.924C50.625 461.796 86.9222 372.477 94.6121 362.099C118.482 326.371 159.516 357.381 178.279 379.082L121.373 481.924C129.166 497.125 148.504 528.533 140.137 543.881C134.677 553.896 119.432 557.558 111.838 555.518C104.885 553.65 104.666 549.417 99.226 546.712C87.8448 541.051 56.1621 502.052 53.3936 481.924Z" fill="black"/>
<path d="M292.535 300.214C292.913 297.48 295.971 293.581 303.222 293.581C310.473 293.581 358.341 275.688 373.61 269.062C388.879 262.435 424.062 236.671 446.203 238.24C468.345 239.809 367.728 312.694 367.728 312.694C367.728 312.694 352.076 320.497 325.741 321.258C306.95 321.844 300.541 320.087 297.495 315.797C297.495 315.797 291.389 318.53 289.098 315.797C286.807 313.063 292.535 300.214 292.535 300.214Z" fill="black"/>
<path d="M545.629 237.23C551.287 239.039 559.157 243.541 561.545 251.695C564.752 262.66 554.1 273.747 558.716 278.447C563.332 283.148 568.269 292.912 562.605 303.397C556.94 313.881 549.283 313.149 549.518 317.493C549.873 324.002 550.932 334.849 541.385 343.162C534.713 348.969 523.693 349.308 518.035 348.225C513.396 347.336 498.562 361.244 485.492 353.289C472.423 345.333 480.911 329.786 479.479 327.62C478.047 325.454 454.72 326.531 468.866 292.549C483.012 258.568 545.629 237.23 545.629 237.23Z" fill="black"/>
<path d="M396.61 428.919C400.332 444.602 413.442 461.824 428.11 464.587C441.695 467.145 491.797 458.44 502.026 452.264C512.255 446.089 511.253 442.834 511.253 442.834C511.253 442.834 520.674 440.147 521.608 437.77C522.541 435.394 518.526 416.609 516.201 416.609C513.876 416.609 506.974 416.837 506.974 416.837C506.974 416.837 501.728 411.522 495.52 411.808C487.931 412.16 453.052 414.87 447.938 412.979C442.823 411.088 419.874 347.668 415.676 346.719C411.478 345.771 396.61 428.919 396.61 428.919Z" fill="black"/>
<path d="M521.923 220.759C521.709 219.761 521.26 218.831 520.617 218.049C519.973 217.267 519.154 216.656 518.229 216.269C515.549 215.098 510.663 213.026 509.724 212.464C509.042 212.054 506.144 208.331 503.825 208.337C501.419 208.337 501.442 211.446 499.535 211.065C492.342 209.637 484.203 207.33 480.732 209.016C470.944 213.764 477.05 232.783 492.187 239.714C493.149 243.32 496.081 245.503 499.541 243.261C504.037 240.334 500.274 237.062 502.084 234.65C503.962 232.133 513.498 229.317 519.392 225.524C521.854 223.932 522.244 222.416 521.923 220.759Z" fill="#FF8481"/>
<path d="M510.346 216.721C509.085 216.387 508.627 216.674 508.558 217.857C508.507 218.694 508.673 220.017 510.455 219.613C511.812 219.25 512.488 217.289 510.346 216.721Z" fill="black"/>
<path d="M501.769 212.407C502.467 209.568 502.416 208.643 503.762 208.345C501.471 208.462 501.333 211.424 499.541 211.067C500.32 214.62 501.419 213.795 501.769 212.407Z" fill="#E85353"/>
<path d="M497.209 210.656C496.373 214.602 499.259 220.994 496.43 221.38C493.601 221.767 486.986 213.841 488.589 208.818C488.589 208.818 493.79 209.913 497.209 210.656Z" fill="white"/>
<path d="M517.708 217.726C516.042 216.556 510.893 223.721 512.983 224.851C514.364 225.594 520.572 219.758 517.708 217.726Z" fill="black"/>
<path d="M476.167 218.751C477.261 223.341 478.349 237.536 468.682 244.631C459.014 251.726 486.517 240.598 486.517 240.598L491.419 234.615L476.167 218.751Z" fill="#FF8481"/>
<path d="M567.11 171.763C563.41 172.121 559.178 172.934 548.714 184.057C538.25 195.179 495.937 231.309 472.387 236.214C448.836 241.12 433.739 229.904 401.46 257.985C369.181 286.066 351.575 316.453 354.628 326.709C357.68 336.965 355.401 330.128 355.401 330.128C355.401 330.128 353.276 337.562 355.229 340.284C357.182 343.006 421.385 347.713 426.883 345.553C432.381 343.392 430.251 339.933 430.251 339.933C430.251 339.933 435.915 338.581 436.625 332.779C437.336 326.978 446.133 315.253 464.489 300.583C483.996 284.989 517.752 267.802 542.271 239.756C566.789 211.71 579.825 192.861 577.597 183.378C577.597 183.378 583.662 179.508 583.662 177.617C583.662 175.727 575.816 165.816 574.332 165.816C572.849 165.816 570.581 165.67 567.11 171.763Z" fill="#8024C0"/>
<path d="M355.217 336.569C354.438 348.236 353.093 427.363 360.08 459.108C367.067 490.853 382.645 546.143 387.187 552.489C390.916 557.675 395.778 557.464 395.778 557.464C395.778 557.464 399.18 570.39 401.122 570.788C403.063 571.186 423.252 562.85 422.473 557.693C421.694 552.535 421.018 546.272 421.018 546.272C421.018 546.272 428.464 538.024 428.378 529.243C428.298 519.116 409.793 461.572 410.566 444.907C411.339 428.241 428.996 352.234 420.875 340.708C412.754 329.182 355.217 336.569 355.217 336.569Z" fill="#2929B2"/>
<path d="M101.801 342.981C96.7664 348.53 137.79 394.874 137.79 394.874C137.79 394.874 213.02 523.847 225.208 539.231C230.901 550.183 239.505 550.323 239.505 550.323C239.505 550.323 245.616 566.684 248.755 567.223C251.893 567.761 274.696 560.088 277.314 555.27C279.536 551.442 274.946 536.4 274.946 536.4C274.946 536.4 276.429 533.386 274.946 519.103C272.431 494.886 213.459 371.601 206.385 363.738C191.843 347.577 115.414 328.001 101.801 342.981Z" fill="black"/>
<path d="M136.713 233.007C164.948 241.788 193.162 283.521 199.457 285.529C203.368 286.787 221.064 289.255 228.986 290.875C239.752 293.077 249.603 295.169 249.603 295.169C249.603 295.169 259.328 294.168 261.041 295.169C262.753 296.17 261.774 308.633 261.774 310.389C261.774 312.146 264.654 316.544 262.214 317.294C259.775 318.043 253.902 318.552 253.902 318.552C253.902 318.552 250.526 324.213 236.369 327.987C221.255 332.016 185.912 342.174 175.156 320.439C164.4 298.703 136.713 233.007 136.713 233.007Z" fill="#8024C0"/>
<path d="M141.933 225.475C129.937 215.726 116.095 215.726 113.326 218.871L108.712 221.818C133.115 252.954 183.397 314.471 189.303 311.451C196.686 307.677 203.364 285.995 199.454 277.368C194.322 266.046 174.231 261.014 165.926 256.926C164.285 251.055 151.53 233.275 141.933 225.475Z" fill="white"/>
<path d="M70.79 236.981C77.2098 230.472 80.7793 225.544 78.4655 224.666C76.1517 223.787 72.4739 225.578 66.5051 222.165C62.0245 219.608 66.9531 208.189 72.9255 208.799C78.8979 209.409 79.3108 204.324 70.4637 191.109C61.7428 178.105 78.2657 172.195 88.5291 177.63C124.33 196.51 115.457 212.507 110.499 217.653C111.974 218.538 114.264 253.119 123.015 244.707C114.149 258.278 125.464 257.316 116.684 269.201C102.367 288.568 70.79 236.981 70.79 236.981Z" fill="#FFA9A9"/>
<path d="M103.01 189.645C109.429 195.687 105.725 206.446 91.3903 201.797C83.7339 199.311 86.2123 197.62 93.7524 192.649C99.2511 189.069 101.242 187.947 103.01 189.645Z" fill="white"/>
<path d="M80.707 188.275C82.1743 189.342 82.3183 190.305 80.7645 191.216C79.8011 191.778 78.8315 191.539 77.8761 190.232C76.9207 188.924 78.6216 186.766 80.707 188.275Z" fill="black"/>
<path d="M92.2125 180.997C93.5183 182.042 93.7543 182.618 92.2894 183.262C91.8137 183.515 91.2609 183.569 90.7469 183.414C90.2329 183.259 89.7976 182.907 89.5319 182.431C88.7184 181.222 90.3688 179.517 92.2125 180.997Z" fill="black"/>
<path d="M71.0911 188.226C71.5192 185.164 74.2204 177.602 78.211 181.535C78.7523 182.05 77.5316 184.284 76.401 185.568C75.4008 186.826 74.2864 187.984 73.0727 189.028C72.0444 189.864 70.9509 189.235 71.0911 188.226Z" fill="black"/>
<path d="M89.1472 177.852C85.3582 179.464 82.0037 179.911 82.4264 178.045C82.5813 177.313 84.3176 176.264 85.8488 175.757C87.3801 175.249 90.0355 177.479 89.1472 177.852Z" fill="black"/>
<path d="M90.3035 191.339C88.6304 191.255 90.7627 188.615 89.3074 186.877C86.2516 183.207 82.1658 184.117 82.3752 183.09C82.5845 182.063 88.6208 183.182 91.1687 185.046C92.5279 186.051 92.8067 191.462 90.3035 191.339Z" fill="#FF8481"/>
<path d="M113.726 212.857C108.369 216.792 97.2023 221.931 85.8907 221.187C81.0654 220.881 114.065 225.366 114.065 225.366C110.932 218.651 113.287 214.516 113.726 212.857Z" fill="#E85353"/>
<path d="M63.7084 209.921C89.1017 217.856 125.177 223.13 138.684 234.444C158.73 251.257 166.607 263.123 186.353 303.245C206.004 343.175 212.009 365.102 210.578 369.961C201.35 371.533 169.974 447.014 105.686 372.791C94.1841 359.512 86.9244 376.88 86.9244 376.88C86.9244 376.88 85.6174 365.756 92.1568 341.636C94.8033 331.875 94.4536 321.373 88.6436 313.136C79.3563 299.969 66.7062 286.21 62.1368 280.916C50.126 267 41.5832 265.471 27.2186 255.041C10.5331 242.926 -11.855 228.768 -12.1246 202.96C-12.3659 179.853 -11.6093 151.029 -7.47723 148.211C-7.47723 148.211 -9.82498 134.05 -6.49133 132.11C-3.15768 130.171 14.7697 133.249 16.1747 140.688C16.6651 143.3 15.958 148.214 15.958 148.214C15.958 148.214 26.1204 152.325 29.1001 182.828C31.076 203.054 38.315 201.985 63.7084 209.921Z" fill="#F45FFF"/>
<mask id="mask0_448_6457" style="mask-type:alpha" maskUnits="userSpaceOnUse" x="-13" y="131" width="224" height="275">
<path d="M63.7079 209.92C89.1012 217.856 125.176 223.13 138.684 234.443C158.73 251.257 166.607 263.123 186.353 303.245C206.004 343.175 212.009 365.102 210.577 369.961C201.349 371.533 169.974 447.014 105.686 372.791C94.1836 359.512 86.924 376.88 86.924 376.88C86.924 376.88 85.6169 365.755 92.1564 341.635C94.8028 331.874 94.4531 321.372 88.6432 313.136C79.3558 299.969 66.7058 286.21 62.1363 280.916C50.1255 267 41.5827 265.471 27.2182 255.041C10.5327 242.926 -11.8555 228.767 -12.1251 202.959C-12.3664 179.852 -11.6098 151.029 -7.47771 148.21C-7.47771 148.21 -9.82546 134.05 -6.49181 132.11C-3.15816 130.171 14.7692 133.249 16.1742 140.688C16.6646 143.299 15.9575 148.214 15.9575 148.214C15.9575 148.214 26.1199 152.325 29.0997 182.828C31.0755 203.054 38.3146 201.985 63.7079 209.92Z" fill="#F45FFF"/>
</mask>
<g mask="url(#mask0_448_6457)">
<path d="M123.65 172.801C126.59 176.863 129.832 180.386 133.172 183.256L150.338 184.494L150.343 184.425C139.329 183.631 119.899 163.636 118.499 139.952L111.492 139.447C112.12 154.558 119.159 166.596 123.65 172.801Z" fill="white"/>
<path d="M39.9224 166.764C42.8627 170.826 46.105 174.35 49.4446 177.22L66.6114 178.458L66.6163 178.389C55.6019 177.595 36.172 157.599 34.7716 133.916L27.7653 133.41C28.3927 148.521 35.4261 160.559 39.9224 166.764Z" fill="white"/>
<path d="M81.7858 169.783C84.7261 173.844 87.9684 177.368 91.3079 180.238L108.475 181.476L108.48 181.407C97.4653 180.613 78.0354 160.617 76.635 136.934L69.6286 136.428C70.2561 151.539 77.2957 163.577 81.7858 169.783Z" fill="white"/>
<path d="M-1.94156 163.746C0.998774 167.808 4.24106 171.332 7.58059 174.202L24.7474 175.44L24.7524 175.371C13.7379 174.577 -5.69194 154.581 -7.09234 130.897L-14.1049 130.392C-13.4713 145.503 -6.43789 157.541 -1.94156 163.746Z" fill="white"/>
<path d="M36.8924 208.793C39.8327 212.855 43.0688 216.378 46.4083 219.248L63.5814 220.486L63.5863 220.417C52.5719 219.623 33.142 199.628 31.7416 175.944L24.7353 175.439C25.3627 190.55 32.3961 202.587 36.8924 208.793Z" fill="white"/>
<path d="M78.7558 211.811C81.6961 215.873 84.9322 219.396 88.2717 222.266L105.445 223.504L105.45 223.435C94.4353 222.641 75.0054 202.646 73.605 178.962L66.5987 178.457C67.2261 193.568 74.2657 205.606 78.7558 211.811Z" fill="white"/>
<path d="M120.619 214.829C123.56 218.891 126.796 222.414 130.135 225.284L147.308 226.522L147.313 226.453C136.299 225.659 116.869 205.664 115.469 181.98L108.462 181.475C109.09 196.586 116.129 208.624 120.619 214.829Z" fill="white"/>
<path d="M-4.97155 205.775C-2.03122 209.836 1.20483 213.36 4.54436 216.23L21.7174 217.468L21.7224 217.399C10.7079 216.605 -8.72194 196.61 -10.1223 172.926L-17.1349 172.42C-16.5012 187.531 -9.46788 199.569 -4.97155 205.775Z" fill="white"/>
<path d="M75.7264 253.84C78.6671 257.895 81.9023 261.431 85.2423 264.295L102.422 265.533L102.427 265.464C91.4121 264.67 71.9822 244.675 70.5818 220.991L63.5755 220.486C64.1967 235.597 71.2363 247.634 75.7264 253.84Z" fill="white"/>
<path d="M117.589 256.858C120.524 260.913 123.765 264.449 127.099 267.312L144.278 268.551L144.283 268.482C133.269 267.688 113.839 247.693 112.439 224.009L105.432 223.504C106.06 238.615 113.099 250.652 117.589 256.858Z" fill="white"/>
<path d="M33.8627 250.822C36.8034 254.877 40.0386 258.413 43.3786 261.277L60.5579 262.515L60.5628 262.446C49.5484 261.652 30.1185 241.657 28.7181 217.973L21.7117 217.468C22.333 232.578 29.3663 244.616 33.8627 250.822Z" fill="white"/>
<path d="M-8.00154 247.803C-5.06076 251.859 -1.82561 255.395 1.51437 258.259L18.6937 259.497L18.6986 259.428C7.68418 258.634 -11.7457 238.639 -13.1461 214.955L-20.1649 214.449C-19.5312 229.56 -12.4979 241.598 -8.00154 247.803Z" fill="white"/>
<path d="M72.6955 295.873C75.63 299.928 78.8714 303.464 82.2052 306.328L99.3844 307.566L99.3894 307.497C88.375 306.703 68.9451 286.708 67.5447 263.024L60.5383 262.519C61.1658 277.63 68.2054 289.668 72.6955 295.873Z" fill="white"/>
<path d="M30.8321 292.855C33.7666 296.91 37.008 300.446 40.3418 303.31L57.521 304.548L57.526 304.479C46.5116 303.685 27.0817 283.69 25.6813 260.006L18.6749 259.501C19.3024 274.612 26.3357 286.649 30.8321 292.855Z" fill="white"/>
<path d="M114.559 298.891C117.494 302.946 120.735 306.482 124.069 309.346L141.248 310.584L141.253 310.516C130.239 309.721 110.809 289.726 109.408 266.042L102.402 265.537C103.029 280.648 110.069 292.686 114.559 298.891Z" fill="white"/>
<path d="M-11.0319 289.837C-8.09733 293.892 -4.85595 297.428 -1.5222 300.292L15.6571 301.53L15.662 301.461C4.64761 300.667 -14.7823 280.672 -16.1827 256.988L-23.1952 256.482C-22.5616 271.594 -15.5282 283.631 -11.0319 289.837Z" fill="white"/>
<path d="M63.6051 421.965C66.5397 426.02 69.7811 429.556 73.1148 432.419L90.2941 433.658L90.299 433.589C79.2846 432.795 59.8547 412.8 58.4543 389.116L51.448 388.611C52.0754 403.721 59.115 415.759 63.6051 421.965Z" fill="white"/>
<path d="M21.7417 418.947C24.6763 423.002 27.9177 426.538 31.2514 429.401L48.4307 430.64L48.4356 430.571C37.4212 429.777 17.9913 409.782 16.5909 386.098L9.58459 385.593C10.212 400.704 17.2454 412.741 21.7417 418.947Z" fill="white"/>
<path d="M105.469 424.983C108.403 429.038 111.645 432.574 114.979 435.438L132.158 436.676L132.163 436.607C121.148 435.813 101.718 415.818 100.318 392.134L93.3117 391.629C93.9391 406.74 100.979 418.778 105.469 424.983Z" fill="white"/>
<path d="M-20.1222 415.928C-17.1877 419.984 -13.9463 423.52 -10.6126 426.383L6.56672 427.622L6.57168 427.553C-4.44275 426.759 -23.8726 406.763 -25.273 383.08L-32.2856 382.574C-31.6519 397.685 -24.6186 409.723 -20.1222 415.928Z" fill="white"/>
<path d="M69.666 337.902C72.6064 341.964 75.8486 345.488 79.1882 348.358L96.3612 349.596L96.3662 349.527C85.3518 348.733 65.9219 328.738 64.5215 305.054L57.5152 304.549C58.1364 319.659 65.1759 331.697 69.666 337.902Z" fill="white"/>
<path d="M27.8023 334.884C30.7427 338.946 33.985 342.469 37.3245 345.339L54.4975 346.578L54.5025 346.509C43.4881 345.715 24.0582 325.719 22.6578 302.035L15.6514 301.53C16.2726 316.641 23.306 328.678 27.8023 334.884Z" fill="white"/>
<path d="M111.529 340.92C114.47 344.982 117.712 348.506 121.045 351.375L138.218 352.613L138.223 352.545C127.209 351.751 107.779 331.755 106.378 308.071L99.3721 307.566C99.9995 322.677 107.039 334.715 111.529 340.92Z" fill="white"/>
<path d="M-14.0619 331.866C-11.1215 335.928 -7.87925 339.451 -4.53972 342.321L12.6333 343.559L12.6383 343.491C1.62385 342.696 -17.806 322.701 -19.2064 299.017L-26.2252 298.511C-25.5916 313.623 -18.5582 325.66 -14.0619 331.866Z" fill="white"/>
<path d="M24.7721 376.912C27.7067 380.967 30.9418 384.503 34.2818 387.367L51.4611 388.605L51.466 388.536C40.4516 387.742 21.0217 367.747 19.6213 344.063L12.615 343.558C13.2424 358.669 20.2758 370.706 24.7721 376.912Z" fill="white"/>
<path d="M66.6355 379.93C69.5701 383.985 72.8052 387.521 76.1452 390.385L93.3245 391.623L93.3294 391.555C82.315 390.76 62.8851 370.765 61.4847 347.081L54.4784 346.576C55.1058 361.687 62.1454 373.725 66.6355 379.93Z" fill="white"/>
<path d="M108.499 382.948C111.434 387.003 114.669 390.539 118.009 393.403L135.188 394.641L135.193 394.573C124.179 393.779 104.749 373.783 103.348 350.099L96.3421 349.594C96.9695 364.705 104.009 376.743 108.499 382.948Z" fill="white"/>
<path d="M-17.0918 373.894C-14.1573 377.949 -10.9221 381.485 -7.58215 384.349L9.59713 385.587L9.60209 385.518C-1.41234 384.724 -20.8422 364.729 -22.2426 341.045L-29.2552 340.54C-28.6215 355.651 -21.5882 367.688 -17.0918 373.894Z" fill="white"/>
<path d="M153.352 142.597C154.021 157.648 161.027 169.633 165.506 175.819C168.446 179.88 171.689 183.404 175.028 186.274L192.195 187.512L192.2 187.443C181.186 186.649 161.755 166.66 160.355 142.97L153.361 142.466L153.352 142.597Z" fill="white"/>
<path d="M207.369 178.837C210.309 182.898 213.551 186.422 216.891 189.292L234.058 190.53L234.063 190.461C223.048 189.667 203.624 169.678 202.218 145.988L195.212 145.482C195.845 160.594 202.879 172.631 207.369 178.837Z" fill="white"/>
<path d="M150.322 184.625C150.991 199.676 157.997 211.661 162.476 217.846C165.417 221.908 168.653 225.431 171.992 228.301L189.165 229.54L189.17 229.471C178.156 228.677 158.726 208.681 157.325 184.997L150.332 184.493L150.322 184.625Z" fill="white"/>
<path d="M204.339 220.865C207.28 224.926 210.516 228.45 213.855 231.32L231.028 232.558L231.033 232.489C220.019 231.695 200.589 211.699 199.189 188.016L192.182 187.51C192.816 202.622 199.849 214.659 204.339 220.865Z" fill="white"/>
<path d="M147.292 226.653C147.961 241.704 154.967 253.689 159.446 259.875C162.381 263.93 165.622 267.466 168.956 270.33L186.135 271.568L186.14 271.499C175.125 270.705 155.696 250.71 154.295 227.026L147.301 226.522L147.292 226.653Z" fill="white"/>
<path d="M201.309 262.893C204.244 266.948 207.485 270.484 210.819 273.348L227.998 274.586L228.003 274.517C216.989 273.723 197.559 253.728 196.158 230.044L189.152 229.539C189.786 244.65 196.819 256.688 201.309 262.893Z" fill="white"/>
<path d="M144.262 268.681C144.931 283.732 151.937 295.717 156.416 301.903C159.351 305.958 162.592 309.494 165.926 312.358L183.105 313.596L183.11 313.527C172.095 312.733 152.666 292.738 151.265 269.054L144.271 268.55L144.262 268.681Z" fill="white"/>
<path d="M198.279 304.927C201.213 308.982 204.455 312.518 207.788 315.382L224.968 316.62L224.973 316.551C213.958 315.757 194.528 295.762 193.128 272.078L186.122 271.573C186.755 286.684 193.789 298.722 198.279 304.927Z" fill="white"/>
<path d="M135.171 394.773C135.841 409.824 142.847 421.809 147.326 427.995C150.26 432.05 153.502 435.586 156.835 438.449L174.015 439.688L174.02 439.619C163.005 438.825 143.575 418.83 142.175 395.146L135.181 394.642L135.171 394.773Z" fill="white"/>
<path d="M189.188 431.019C192.123 435.074 195.364 438.61 198.698 441.473L215.877 442.712L215.882 442.643C204.868 441.849 185.438 421.854 184.038 398.17L177.031 397.665C177.665 412.776 184.698 424.813 189.188 431.019Z" fill="white"/>
<path d="M141.231 310.717C141.901 325.768 148.907 337.754 153.385 343.939C156.326 348.001 159.568 351.525 162.901 354.394L180.074 355.632L180.079 355.563C169.065 354.769 149.635 334.774 148.235 311.09L141.241 310.586L141.231 310.717Z" fill="white"/>
<path d="M195.249 346.956C198.189 351.018 201.431 354.541 204.765 357.411L221.938 358.649L221.943 358.58C210.928 357.786 191.498 337.791 190.098 314.107L183.092 313.602C183.725 328.713 190.759 340.751 195.249 346.956Z" fill="white"/>
<path d="M192.219 388.984C195.153 393.039 198.389 396.575 201.729 399.439L218.914 400.678L218.919 400.609C207.905 399.815 188.475 379.819 187.074 356.135L180.062 355.63C180.695 370.741 187.729 382.779 192.219 388.984Z" fill="white"/>
<path d="M138.201 352.744C138.871 367.795 145.877 379.781 150.356 385.966C153.29 390.021 156.525 393.557 159.865 396.421L177.051 397.66L177.056 397.591C166.041 396.797 146.611 376.802 145.211 353.118L138.211 352.613L138.201 352.744Z" fill="white"/>
</g>
<path d="M401.772 335.401C404.149 355.445 386.446 429.619 388.101 446.484C390.392 470.052 413.96 533.121 412.225 548.528" stroke="#0077FF" stroke-width="0.391183" stroke-miterlimit="10"/>
<path d="M529.844 423.067C526.27 422.271 526.682 417.933 528.074 413.268C528.074 413.268 533.102 398.019 537.06 397.398C543.394 396.403 586.24 403.129 593.903 409.106C599.367 413.367 600.003 419.783 595.106 422.125C579.07 429.787 547.335 439.335 545.027 437.52C542.719 435.706 544.74 429.565 544.053 427.569C542.157 422.107 529.844 423.067 529.844 423.067Z" fill="#0077FF"/>
<path d="M593.905 409.112C586.242 403.129 543.402 396.444 537.062 397.404C531.908 398.183 528.076 413.274 528.076 413.274C527.881 413.93 527.704 414.574 527.555 415.212C541.873 419.052 545.012 403.381 556.535 403.674C565.086 403.89 597.892 409.797 596.494 421.148C599.701 417.893 598.779 412.905 593.905 409.112Z" fill="black"/>
<path d="M255.177 297.876C255.177 297.876 257.471 290.768 267.299 288.099C272.836 286.595 280.833 289.633 281.449 290.93C282.028 292.149 279.781 293.638 274.054 293.796C268.326 293.954 266.373 314.835 266.373 314.835C266.373 314.835 257.462 314.835 256.064 312.323C254.667 309.812 254.272 300.077 255.177 297.876Z" fill="#FFA9A9"/>
<path d="M295.12 297.146C292.669 294.998 278.666 292.61 274.817 291.878C270.969 291.146 262.332 291.48 260.23 293.745C258.128 296.011 257.515 303.316 258.22 308.128C258.844 312.361 259.646 314.017 260.694 313.66C260.694 313.66 261.627 318.121 262.796 318.343C263.152 318.395 263.516 318.344 263.846 318.196C264.176 318.048 264.459 317.809 264.663 317.506C264.663 317.506 265.808 320.486 267.349 320.251C268.89 320.017 270.963 315.118 270.963 315.118C270.963 315.118 273.998 314.163 275.98 309.633C277.962 305.102 280.768 305.459 285.9 307.484C289.072 308.728 292.424 309.424 295.819 309.545C295.819 309.545 299.204 300.723 295.12 297.146Z" fill="#FF8481"/>
<path d="M271.027 313.719C271.027 313.719 273.447 306.616 275.293 305.672C276.831 305.043 277.361 306.138 277.361 306.138C277.361 306.138 279.652 303.152 281.863 303.908C284.074 304.663 283.695 305.88 283.695 305.88C283.907 305.666 284.923 304.582 286.153 304.897C287.384 305.211 286.821 307.255 287.076 307.413C287.076 307.413 288.614 306.784 289.229 307.727C289.844 308.357 289.159 312.404 287.904 315.107C286.153 318.881 283.695 318.881 277.361 318.881C271.027 318.881 268.833 318.173 268.833 318.173L271.027 313.719Z" fill="#FFA9A9"/>
<path d="M380.287 325.341C380.287 325.341 423.643 323 430.115 336.61" stroke="#0077FF" stroke-width="0.391183" stroke-miterlimit="10"/>
<path d="M94.3065 282.529C105.668 268.257 87.539 219.629 73.697 212.71C76.4657 207.678 104.457 216.169 108.456 221.516C113.127 227.762 148.444 290.706 134.602 330.019C123.528 361.47 66.2123 352.139 43.2449 342.914C38.0773 330.082 49.397 313.665 53.7033 308.633C52.2268 296.556 57.3942 282.844 61.0854 279.699C68.7754 288.505 83.5405 296.053 94.3065 282.529Z" fill="white"/>
<path d="M72.1625 208.62C62.6269 205.79 48.7849 191.637 49.7077 187.863C47.2469 190.128 46.8367 194.258 46.9393 196.04C47.9236 202.079 61.2939 208.62 67.8561 211.136C68.7789 209.878 71.1371 208.62 72.1625 208.62Z" fill="#0077FF"/>
<path d="M43.8625 141.002C47.8613 139.43 53.3104 140.259 54.4474 144.186C56.1663 150.123 46.9712 154.801 45.9091 151.457C44.7 147.65 55.9394 147.292 57.6796 153.908C59.3312 160.187 50.8988 166.477 49.3993 162.389C47.3561 156.818 65.3414 158.906 61.4692 170.395" stroke="black" stroke-width="0.782367"/>
<path d="M40.1703 124.793L39.8399 129.685C39.8248 129.909 39.7568 130.125 39.6417 130.316C39.5266 130.507 39.3679 130.666 39.1792 130.78L35.0503 133.277C34.8332 133.408 34.6564 133.599 34.5398 133.828C34.4232 134.057 34.3715 134.314 34.3905 134.571C34.4095 134.828 34.4985 135.075 34.6474 135.283C34.7963 135.491 34.9992 135.652 35.2331 135.748L39.6819 137.58C39.8856 137.664 40.0664 137.797 40.2085 137.968C40.3506 138.139 40.4497 138.343 40.4974 138.562L41.5421 143.348C41.5971 143.599 41.7197 143.83 41.896 144.013C42.0724 144.197 42.2955 144.327 42.5403 144.388C42.785 144.449 43.0416 144.439 43.281 144.359C43.5205 144.279 43.7334 144.132 43.8956 143.935L46.9756 140.174C47.1161 140.002 47.2953 139.868 47.4979 139.783C47.7004 139.697 47.9203 139.664 48.1384 139.685L52.914 140.145C53.1651 140.169 53.4178 140.121 53.6436 140.006C53.8694 139.891 54.0593 139.714 54.1917 139.494C54.3241 139.275 54.3938 139.022 54.393 138.764C54.3921 138.506 54.3207 138.254 54.1868 138.035L51.6409 133.879C51.5247 133.689 51.4554 133.473 51.4389 133.25C51.4225 133.027 51.4593 132.802 51.5464 132.597L53.4551 128.093C53.5553 127.857 53.5888 127.596 53.5517 127.341C53.5146 127.086 53.4084 126.846 53.2451 126.65C53.0818 126.453 52.8679 126.307 52.6276 126.229C52.3874 126.15 52.1304 126.142 51.8857 126.204L47.2323 127.395C47.0195 127.45 46.797 127.451 46.5839 127.398C46.3708 127.345 46.1735 127.24 46.009 127.092L42.4125 123.849C42.2233 123.679 41.9911 123.566 41.7423 123.524C41.4935 123.481 41.238 123.511 41.0047 123.609C40.7714 123.707 40.5697 123.87 40.4222 124.079C40.2747 124.289 40.1875 124.536 40.1703 124.793Z" fill="#FFEF60"/>
<path d="M-7.19236 147.367C-4.10304 147.067 4.11827 146.168 12.1958 147.488" stroke="#0077FF" stroke-width="0.391183" stroke-linecap="round"/>
<path d="M256.413 320.582C254.718 319.497 252.414 313.663 253.029 307.688" stroke="#0077FF" stroke-width="0.391183" stroke-linecap="round"/>
<path d="M454.511 238.183C420.674 209.564 385.055 231.201 390.223 272.464C396.682 324.043 435.975 370.399 452.358 365.871C463.739 362.726 457.587 333.478 452.358 323.728" stroke="black" stroke-width="0.782367" stroke-linecap="round"/>
<path d="M526.491 210.194C526.491 181.26 601.785 171.005 608.005 188.494C611.696 198.872 600.93 208.622 574.169 212.71" stroke="black" stroke-width="0.782367" stroke-linecap="round"/>
<path d="M443.696 236.525C441.431 235.471 440.432 232.74 441.462 230.425C442.493 228.11 445.164 227.087 447.428 228.141C449.693 229.195 450.693 231.926 449.662 234.241C448.631 236.556 445.96 237.579 443.696 236.525Z" fill="white"/>
<path d="M443.696 236.525C441.431 235.471 440.432 232.74 441.462 230.425C442.493 228.11 445.164 227.087 447.428 228.141C449.693 229.195 450.693 231.926 449.662 234.241C448.631 236.556 445.96 237.579 443.696 236.525Z" fill="white"/>
<path d="M443.696 236.525C441.431 235.471 440.432 232.74 441.462 230.425C442.493 228.11 445.164 227.087 447.428 228.141C449.693 229.195 450.693 231.926 449.662 234.241C448.631 236.556 445.96 237.579 443.696 236.525Z" fill="white"/>
<path d="M525.974 206.332C523.71 205.278 522.71 202.547 523.741 200.232C524.771 197.917 527.442 196.894 529.707 197.948C531.971 199.002 532.971 201.733 531.94 204.048C530.909 206.363 528.238 207.385 525.974 206.332Z" fill="white"/>
<path d="M525.974 206.332C523.71 205.278 522.71 202.547 523.741 200.232C524.771 197.917 527.442 196.894 529.707 197.948C531.971 199.002 532.971 201.733 531.94 204.048C530.909 206.363 528.238 207.385 525.974 206.332Z" fill="white"/>
<path d="M525.974 206.332C523.71 205.278 522.71 202.547 523.741 200.232C524.771 197.917 527.442 196.894 529.707 197.948C531.971 199.002 532.971 201.733 531.94 204.048C530.909 206.363 528.238 207.385 525.974 206.332Z" fill="white"/>
<path d="M430.618 230.864C428.354 229.81 427.354 227.079 428.385 224.764C429.415 222.449 432.087 221.427 434.351 222.481C436.615 223.535 437.615 226.266 436.584 228.581C435.553 230.896 432.882 231.918 430.618 230.864Z" fill="#FF3985"/>
<path d="M535.198 196.897C532.934 195.843 531.934 193.112 532.965 190.797C533.995 188.482 536.667 187.46 538.931 188.514C541.195 189.568 542.195 192.299 541.164 194.614C540.133 196.929 537.462 197.951 535.198 196.897Z" fill="#FF3985"/>
<path d="M579.5 184.319C577.236 183.265 576.236 180.534 577.267 178.219C578.298 175.904 580.969 174.882 583.233 175.936C585.497 176.99 586.497 179.721 585.466 182.036C584.436 184.351 581.764 185.373 579.5 184.319Z" fill="#FF3985"/>
<path d="M415.237 230.235C412.972 229.181 411.973 226.45 413.003 224.135C414.034 221.82 416.705 220.798 418.97 221.852C421.234 222.906 422.234 225.637 421.203 227.952C420.172 230.267 417.501 231.289 415.237 230.235Z" fill="#FFEF60"/>
<path d="M546.889 189.978C544.624 188.924 543.624 186.193 544.655 183.878C545.686 181.563 548.357 180.54 550.621 181.594C552.886 182.648 553.885 185.379 552.855 187.694C551.824 190.009 549.153 191.032 546.889 189.978Z" fill="#FFEF60"/>
<path d="M399.86 237.153C397.596 236.099 396.596 233.368 397.627 231.053C398.658 228.738 401.329 227.715 403.593 228.769C405.857 229.823 406.857 232.554 405.826 234.869C404.795 237.184 402.124 238.207 399.86 237.153Z" fill="#8024C0"/>
<path d="M563.505 186.204C561.24 185.15 560.241 182.419 561.271 180.104C562.302 177.789 564.973 176.767 567.237 177.821C569.502 178.875 570.502 181.606 569.471 183.921C568.44 186.236 565.769 187.258 563.505 186.204Z" fill="white"/>
<path d="M429.392 359.81C427.127 358.756 426.128 356.025 427.158 353.71C428.189 351.395 430.86 350.372 433.124 351.426C435.389 352.48 436.389 355.211 435.358 357.526C434.327 359.841 431.656 360.864 429.392 359.81Z" fill="#8024C0"/>
<path d="M457.689 352.89C455.425 351.836 454.425 349.105 455.456 346.79C456.487 344.475 459.158 343.453 461.422 344.506C463.686 345.56 464.686 348.291 463.655 350.607C462.624 352.922 459.953 353.944 457.689 352.89Z" fill="#8024C0"/>
<path d="M391.242 249.105C388.978 248.051 387.978 245.32 389.009 243.005C390.04 240.69 392.711 239.668 394.975 240.722C397.239 241.776 398.239 244.507 397.208 246.822C396.178 249.137 393.507 250.159 391.242 249.105Z" fill="#FFEF60"/>
<path d="M388.168 263.572C385.903 262.518 384.904 259.787 385.934 257.472C386.965 255.157 389.636 254.134 391.901 255.188C394.165 256.242 395.165 258.973 394.134 261.288C393.103 263.603 390.432 264.626 388.168 263.572Z" fill="white"/>
<path d="M388.784 279.296C386.52 278.242 385.52 275.511 386.551 273.196C387.582 270.881 390.253 269.859 392.517 270.912C394.782 271.966 395.781 274.697 394.751 277.013C393.72 279.328 391.049 280.35 388.784 279.296Z" fill="#FFEF60"/>
<path d="M391.86 293.135C389.596 292.081 388.596 289.35 389.627 287.035C390.658 284.72 393.329 283.697 395.593 284.751C397.857 285.805 398.857 288.536 397.826 290.851C396.796 293.166 394.124 294.189 391.86 293.135Z" fill="white"/>
<path d="M397.397 306.972C395.133 305.918 394.133 303.187 395.164 300.872C396.195 298.557 398.866 297.535 401.13 298.589C403.394 299.643 404.394 302.374 403.363 304.689C402.333 307.004 399.661 308.026 397.397 306.972Z" fill="#FF3985"/>
<path d="M403.913 320.28C401.449 319.929 399.73 317.602 400.074 315.082C400.417 312.563 402.693 310.805 405.157 311.157C407.621 311.508 409.34 313.835 408.997 316.354C408.653 318.873 406.377 320.631 403.913 320.28Z" fill="#FFEF60"/>
<path d="M441.435 368.081C438.971 367.73 437.252 365.404 437.596 362.884C437.939 360.365 440.215 358.607 442.679 358.958C445.143 359.309 446.862 361.636 446.519 364.156C446.175 366.675 443.899 368.433 441.435 368.081Z" fill="#FFEF60"/>
<path d="M410.061 334.117C407.597 333.766 405.878 331.439 406.221 328.919C406.564 326.4 408.84 324.642 411.304 324.993C413.768 325.345 415.487 327.671 415.144 330.191C414.801 332.71 412.525 334.468 410.061 334.117Z" fill="white"/>
<path d="M455.588 337.89C453.124 337.539 451.404 335.212 451.748 332.693C452.091 330.173 454.367 328.416 456.831 328.767C459.295 329.118 461.014 331.445 460.671 333.964C460.327 336.483 458.052 338.241 455.588 337.89Z" fill="white"/>
<path d="M419.293 347.325C416.829 346.974 415.11 344.647 415.454 342.128C415.797 339.609 418.073 337.851 420.537 338.202C423.001 338.553 424.72 340.88 424.377 343.399C424.033 345.919 421.757 347.676 419.293 347.325Z" fill="#FF3985"/>
<path d="M455.59 366.824C453.126 366.473 451.407 364.146 451.751 361.626C452.094 359.107 454.37 357.349 456.834 357.701C459.298 358.052 461.017 360.378 460.674 362.898C460.33 365.417 458.054 367.175 455.59 366.824Z" fill="#FF3985"/>
<path d="M578.768 336.464C586.856 339.493 580.803 353.446 574.553 352.219C568.303 350.991 572.014 333.937 578.768 336.464Z" fill="white"/>
<path d="M578.915 20.6655C569.197 19.0263 578.03 1.60669 585.386 5.17031C592.742 8.73393 585.679 21.8073 578.915 20.6655Z" fill="white"/>
<path d="M12.9762 13.6899C10.879 26.9236 -12.5542 15.05 -7.8541 5.01454C-3.15398 -5.02087 14.4371 4.47936 12.9762 13.6899Z" fill="#FFFF4D"/>
<path d="M511.188 160.98C518.074 165.879 540.038 134.3 532.034 129.25C525.638 123.456 504.302 156.08 511.188 160.98Z" fill="#00EAFF"/>
</svg>
